<svg width="36" height="36" viewBox="0 0 36 36" fill="none" xmlns="http://www.w3.org/2000/svg">
<path fill-rule="evenodd" clip-rule="evenodd" d="M22.4579 0.00835604L22.4567 0.00866793L0.544993 3.48433C0.230385 3.53407 0 3.79326 0 4.09657V31.9031C0 32.2066 0.230385 32.4656 0.544993 32.5153L22.458 35.9912C22.5247 36.002 22.592 36.0022 22.6578 35.9933L35.4399 34.2555C35.7614 34.2117 36 33.9499 36 33.6412V2.3587C36 2.04977 35.7614 1.78786 35.4399 1.74404L22.6573 0.00625076C22.5903 -0.00295008 22.5234 -0.00178048 22.4579 0.00835604ZM23.2174 26.9682V34.6633L25.5653 34.344V24.9819L23.2174 26.9682ZM1.30439 23.9462L21.9129 27.2151V34.6463L1.30439 31.3772V23.9462ZM31.4347 2.45344V19.7377C31.4347 19.9149 31.3549 20.0839 31.2156 20.2016L26.8693 23.8786V34.1666C30.2305 33.7096 34.6954 33.1028 34.6954 33.1028V2.89711L31.4347 2.45344ZM2.81574 22.9277L21.9129 25.9567V22.4062L7.15799 20.9762L2.81574 22.9277ZM30.1304 2.27621L23.2174 1.33624V25.3072L30.1304 19.4589V2.27621ZM1.30439 7.10501V22.2341L6.39138 19.9478V6.29822L1.30439 7.10501ZM7.69544 6.09113V19.7806L21.9129 21.1585V3.83614L7.69544 6.09113ZM24.6521 4.09649V5.83428C24.6521 6.1769 24.9445 6.45518 25.3041 6.45518C25.6641 6.45518 25.9566 6.1769 25.9566 5.83428V4.09649C25.9566 3.75388 25.6641 3.4759 25.3041 3.4759C24.9445 3.47598 24.6521 3.75388 24.6521 4.09649ZM21.9129 2.57773L1.30439 5.84653V4.62234L21.9129 1.35347V2.57773Z" fill="white"/>
</svg>
