<svg width="36" height="36" viewBox="0 0 36 36" fill="none" xmlns="http://www.w3.org/2000/svg">
<path d="M23.0573 15.2957C25.2434 14.3655 28.0929 13.7981 32.2702 13.916C30.2701 11.3731 28.4816 9.51701 27.4101 7.65207C24.4479 9.36009 22.278 11.1281 20.6621 12.9194C19.9177 12.5291 19.0852 12.2885 18.1952 12.2583C18.4732 9.91817 19.3918 7.17648 21.5992 3.59668C19.1987 3.59668 16.7998 3.59668 14.3993 3.59668C13.8968 7.85486 14.2251 10.8126 14.9437 13.131C14.2022 13.5961 13.5801 14.227 13.1162 14.9714C11.2312 13.599 9.32478 11.6696 7.35482 8.94807C6.36702 11.1542 5.38647 12.6373 3.72754 13.9104C7.14157 16.4593 9.88044 17.6761 12.2608 18.2217C12.2966 19.1189 12.5416 19.951 12.9404 20.697C10.7544 21.6273 7.90485 22.193 3.72754 22.0751C5.72606 24.618 7.51456 26.4741 8.58886 28.339C11.5482 26.631 13.7194 24.8659 15.3336 23.0746C16.078 23.4648 16.9105 23.7055 17.8033 23.7356C17.5253 26.0758 16.6067 28.8174 14.3993 32.3972C16.7998 32.3972 19.1987 32.3972 21.5992 32.3972C22.1033 28.1391 21.7734 25.1813 21.0536 22.8629C21.7967 22.3978 22.4172 21.7669 22.8823 21.0225C24.7686 22.3934 26.6766 24.3243 28.6453 27.0418C29.6331 24.8373 30.6125 23.3526 32.2726 22.0811C28.8586 19.5322 26.1209 18.317 23.7377 17.7698C23.7007 16.8754 23.4561 16.0429 23.0573 15.2957ZM18.0001 19.7997C17.0066 19.7997 16.1999 18.9918 16.1999 17.9996C16.1999 17.0074 17.0062 16.1994 18.0001 16.1994C18.9923 16.1994 19.8002 17.0074 19.8002 17.9996C19.7998 18.9918 18.9919 19.7997 18.0001 19.7997Z" fill="white"/>
<path d="M33.1199 0H2.8801C1.296 0 0 1.296 0 2.8801V33.1199C0 34.704 1.296 36 2.8801 36H33.1199C34.704 36 36 34.704 36 33.1199V2.8801C35.9996 1.296 34.7036 0 33.1199 0ZM2.51998 1.44005C3.11749 1.44005 3.59992 1.92248 3.59992 2.51998C3.59992 3.11749 3.11749 3.59992 2.51998 3.59992C1.92248 3.59992 1.44005 3.11749 1.44005 2.51998C1.44005 1.92248 1.92248 1.44005 2.51998 1.44005ZM2.51998 34.5596C1.92248 34.5596 1.44005 34.0771 1.44005 33.4796C1.44005 32.8821 1.92248 32.3997 2.51998 32.3997C3.11749 32.3997 3.59992 32.8821 3.59992 33.4796C3.59992 34.0775 3.11749 34.5596 2.51998 34.5596ZM18 33.8397C9.25912 33.8397 2.16027 26.7534 2.16027 18C2.16027 9.24665 9.25912 2.15987 18 2.15987C26.7409 2.15987 33.8397 9.24624 33.8397 18C33.8397 26.7538 26.7405 33.8397 18 33.8397ZM33.4796 34.5596C32.8821 34.5596 32.3997 34.0771 32.3997 33.4796C32.3997 32.8821 32.8821 32.3997 33.4796 32.3997C34.0771 32.3997 34.5596 32.8821 34.5596 33.4796C34.5596 34.0775 34.0775 34.5596 33.4796 34.5596ZM33.4796 3.59992C32.8821 3.59992 32.3997 3.11749 32.3997 2.51998C32.3997 1.92248 32.8821 1.44005 33.4796 1.44005C34.0771 1.44005 34.5596 1.92248 34.5596 2.51998C34.5596 3.11749 34.0775 3.59992 33.4796 3.59992Z" fill="white"/>
</svg>
