<svg width="36" height="36" viewBox="0 0 36 36" fill="none" xmlns="http://www.w3.org/2000/svg">
<path d="M27.8484 11.5723C27.4747 11.5723 27.1717 11.8753 27.1717 12.249V27.1714H13.1768C12.803 27.1714 12.5 27.4745 12.5 27.8482C12.5 28.2219 12.803 28.525 13.1768 28.525H27.8484C28.2222 28.525 28.5252 28.2219 28.5252 27.8482V12.249C28.5253 11.8752 28.2222 11.5723 27.8484 11.5723Z" fill="white"/>
<path d="M27.8481 7.47461H8.15161C7.77783 7.47461 7.47485 7.77766 7.47485 8.15137V27.8478C7.47485 28.2216 7.7779 28.5246 8.15161 28.5246H10.9223C11.2961 28.5246 11.599 28.2215 11.599 27.8478C11.599 27.4741 11.296 27.171 10.9223 27.171H8.82837V8.8282H27.1712V9.99271C27.1712 10.3665 27.4743 10.6695 27.848 10.6695C28.2217 10.6695 28.5247 10.3664 28.5247 9.99271V8.15137C28.5249 7.77766 28.2218 7.47461 27.8481 7.47461Z" fill="white"/>
<path d="M19.7828 10.7812H11.7454C11.3716 10.7812 11.0686 11.0843 11.0686 11.458C11.0686 11.8318 11.3717 12.1348 11.7454 12.1348H19.7828C20.1566 12.1348 20.4595 11.8317 20.4595 11.458C20.4596 11.0843 20.1566 10.7812 19.7828 10.7812Z" fill="white"/>
<path d="M15.2644 13.6719H11.7454C11.3716 13.6719 11.0686 13.9749 11.0686 14.3486C11.0686 14.7224 11.3717 15.0254 11.7454 15.0254H15.2644C15.6382 15.0254 15.9412 14.7223 15.9412 14.3486C15.9412 13.9749 15.6382 13.6719 15.2644 13.6719Z" fill="white"/>
<path d="M36 13.0821C36 12.7083 35.697 12.4053 35.3232 12.4053H32.5503V8.84088H35.3232C35.697 8.84088 36 8.53784 36 8.16413C36 7.79041 35.697 7.48737 35.3232 7.48737H32.5503V4.12657C32.5503 3.75279 32.2472 3.44981 31.8735 3.44981H28.5128V0.676758C28.5128 0.302977 28.2098 0 27.8361 0C27.4624 0 27.1593 0.303047 27.1593 0.676758V3.44974H23.5948V0.676758C23.5948 0.302977 23.2917 0 22.918 0C22.5442 0 22.2413 0.303047 22.2413 0.676758V3.44974H18.6768V0.676758C18.6768 0.302977 18.3738 0 18.0001 0C17.6263 0 17.3233 0.303047 17.3233 0.676758V3.44974H13.7589V0.676758C13.7589 0.302977 13.4558 0 13.0821 0C12.7084 0 12.4054 0.303047 12.4054 0.676758V3.44974H8.84095V0.676758C8.84095 0.302977 8.53791 0 8.1642 0C7.79041 0 7.48744 0.303047 7.48744 0.676758V3.44974H4.12657C3.75279 3.44974 3.44981 3.75279 3.44981 4.1265V7.48716H0.676758C0.302977 7.48716 0 7.7902 0 8.16391C0 8.53763 0.303047 8.84067 0.676758 8.84067H3.44974V12.4051H0.676758C0.303047 12.4052 0 12.7082 0 13.082C0 13.4558 0.303047 13.7587 0.676758 13.7587H3.44974V17.3232H0.676758C0.303047 17.3232 0 17.6261 0 17.9999C0 18.3737 0.303047 18.6767 0.676758 18.6767H3.44974V22.2411H0.676758C0.302977 22.2411 0 22.5442 0 22.9179C0 23.2916 0.303047 23.5946 0.676758 23.5946H3.44974V27.159H0.676758C0.302977 27.159 0 27.4621 0 27.8358C0 28.2095 0.303047 28.5126 0.676758 28.5126H3.44974V31.8732C3.44974 32.247 3.75279 32.55 4.1265 32.55H7.48723V35.323C7.48723 35.6967 7.79027 35.9997 8.16398 35.9997C8.53769 35.9997 8.84074 35.6967 8.84074 35.323V32.55H12.4052V35.323C12.4052 35.6967 12.7082 35.9997 13.0819 35.9997C13.4556 35.9997 13.7587 35.6967 13.7587 35.323V32.55H17.3231V35.323C17.3231 35.6967 17.6261 35.9997 17.9999 35.9997C18.3736 35.9997 18.6766 35.6967 18.6766 35.323V32.55H22.241V35.323C22.241 35.6967 22.5441 35.9997 22.9178 35.9997C23.2916 35.9997 23.5946 35.6967 23.5946 35.323V32.55H27.159V35.323C27.159 35.6967 27.462 35.9997 27.8357 35.9997C28.2094 35.9997 28.5125 35.6967 28.5125 35.323V32.55H31.8731C32.2469 32.55 32.5499 32.2469 32.5499 31.8732V28.5126H35.3229C35.6967 28.5126 35.9996 28.2095 35.9996 27.8358C35.9996 27.4621 35.6966 27.159 35.3229 27.159H32.5499V23.5947H35.3229C35.6967 23.5947 35.9996 23.2916 35.9996 22.9179C35.9996 22.5442 35.6966 22.2412 35.3229 22.2412H32.5499V18.6768H35.3229C35.6967 18.6768 35.9996 18.3737 35.9996 18C35.9996 17.6263 35.6966 17.3232 35.3229 17.3232H32.5499V13.7588H35.3229C35.697 13.7587 36 13.4558 36 13.0821ZM31.1966 31.1966H4.8034V4.80333H31.1967V31.1966H31.1966Z" fill="white"/>
</svg>
