<svg width="36" height="36" viewBox="0 0 36 36" fill="none" xmlns="http://www.w3.org/2000/svg">
<path d="M35.4311 5.32484H31.9792C31.665 5.32484 31.4103 5.57923 31.4103 5.89324C31.4103 6.20726 31.665 6.46165 31.9792 6.46165H34.8621V29.5384H15.723H8.08056H5.34139V28.5916V26.8484V25.3421V17.7063V16.2V14.4568V12.2968V7.74942V6.46165H30.1585C30.4728 6.46165 30.7274 6.20719 30.7274 5.89324C30.7274 5.5793 30.4728 5.32484 30.1585 5.32484H5.34139V0.568406C5.34139 0.254461 5.08678 0 4.77249 0H0.568904C0.254684 0 0 0.254461 0 0.568406C0 0.882352 0.254613 1.13681 0.568904 1.13681H4.20351V5.89317V7.18102H2.6707C2.35641 7.18102 2.10179 7.43541 2.10179 7.74942V12.2968C2.10179 12.6108 2.35648 12.8652 2.6707 12.8652H4.20358V13.8884H2.6707C2.35641 13.8884 2.10179 14.1428 2.10179 14.4568V16.2C2.10179 16.514 2.35648 16.7684 2.6707 16.7684H4.20358V17.1379H2.6707C2.35641 17.1379 2.10179 17.3923 2.10179 17.7063V25.3421C2.10179 25.6561 2.35648 25.9105 2.6707 25.9105H4.20358V26.28H2.6707C2.35641 26.28 2.10179 26.5344 2.10179 26.8484V28.5916C2.10179 28.9056 2.35648 29.16 2.6707 29.16H4.20358V30.1068V35.4316C4.20358 35.7456 4.4582 36 4.77249 36C5.08678 36 5.34139 35.7456 5.34139 35.4316V30.6752H7.51166V32.2068C7.51166 32.5208 7.76627 32.7752 8.08056 32.7752H12.3836C12.6979 32.7752 12.9525 32.5208 12.9525 32.2068C12.9525 31.8928 12.6979 31.6384 12.3836 31.6384H8.64954V30.6752H15.1541V31.6384H14.2797C13.9655 31.6384 13.7108 31.8928 13.7108 32.2068C13.7108 32.5208 13.9655 32.7752 14.2797 32.7752H15.723C16.0373 32.7752 16.292 32.5208 16.292 32.2068V30.6752H35.4311C35.7454 30.6752 36 30.4208 36 30.1068V5.89324C36 5.57923 35.7453 5.32484 35.4311 5.32484ZM4.20358 28.0232H3.2396V27.4169H4.20358V28.0232ZM4.20358 24.7737H3.2396V18.2747H4.20358V24.7737ZM4.20358 15.6316H3.2396V15.0253H4.20358V15.6316ZM4.20358 11.7284H3.2396V8.3179H4.20358V11.7284Z" fill="white"/>
<path d="M8.1987 11.0346C9.14685 11.0346 9.91822 10.264 9.91822 9.31665C9.91822 8.36933 9.14685 7.59863 8.1987 7.59863C7.25055 7.59863 6.47925 8.36933 6.47925 9.31665C6.47925 10.264 7.25062 11.0346 8.1987 11.0346ZM8.1987 8.73552C8.51946 8.73552 8.78034 8.99616 8.78034 9.31665C8.78034 9.63699 8.51946 9.89771 8.1987 9.89771C7.878 9.89771 7.61713 9.63699 7.61713 9.31665C7.61713 8.99616 7.87807 8.73552 8.1987 8.73552Z" fill="white"/>
<path d="M8.1987 28.4018C9.14685 28.4018 9.91822 27.6312 9.91822 26.6838C9.91822 25.7365 9.14685 24.9658 8.1987 24.9658C7.25055 24.9658 6.47925 25.7365 6.47925 26.6838C6.47925 27.6312 7.25062 28.4018 8.1987 28.4018ZM8.1987 26.1027C8.51946 26.1027 8.78034 26.3634 8.78034 26.6838C8.78034 27.0042 8.51946 27.2649 8.1987 27.2649C7.878 27.2649 7.61713 27.0042 7.61713 26.6838C7.61713 26.3634 7.87807 26.1027 8.1987 26.1027Z" fill="white"/>
<path d="M32.0049 7.59863C31.0567 7.59863 30.2854 8.36933 30.2854 9.31665C30.2854 10.264 31.0567 11.0346 32.0049 11.0346C32.953 11.0346 33.7244 10.264 33.7244 9.31665C33.7244 8.36933 32.953 7.59863 32.0049 7.59863ZM32.0049 9.89764C31.6842 9.89764 31.4233 9.63692 31.4233 9.31658C31.4233 8.99609 31.6842 8.73545 32.0049 8.73545C32.3256 8.73545 32.5865 8.99609 32.5865 9.31658C32.5866 9.63699 32.3257 9.89764 32.0049 9.89764Z" fill="white"/>
<path d="M32.0049 28.4018C32.953 28.4018 33.7244 27.6312 33.7244 26.6838C33.7244 25.7365 32.953 24.9658 32.0049 24.9658C31.0567 24.9658 30.2854 25.7365 30.2854 26.6838C30.2854 27.6312 31.0568 28.4018 32.0049 28.4018ZM32.0049 26.1027C32.3256 26.1027 32.5865 26.3634 32.5865 26.6838C32.5865 27.0042 32.3256 27.2649 32.0049 27.2649C31.6842 27.2649 31.4233 27.0042 31.4233 26.6838C31.4233 26.3634 31.6842 26.1027 32.0049 26.1027Z" fill="white"/>
<path d="M23.0866 24.9156C26.8603 24.9156 29.9304 21.8482 29.9304 18.0779C29.9304 14.3076 26.8603 11.2402 23.0866 11.2402C19.313 11.2402 16.2429 14.3076 16.2429 18.0779C16.243 21.8482 19.313 24.9156 23.0866 24.9156ZM22.0278 19.9356C22.0223 19.9449 22.0169 19.9543 22.0114 19.9638C21.9652 20.0446 21.9211 20.1263 21.8796 20.2094C21.8773 20.2141 21.8745 20.2185 21.8721 20.2233C21.8705 20.2264 21.8695 20.2298 21.8681 20.2329C21.5314 20.9147 21.3518 21.6695 21.3518 22.4408C21.3518 22.7972 21.3889 23.1479 21.4625 23.4904C20.6154 23.2315 19.8329 22.773 19.1884 22.1524C19.2741 20.9998 19.8718 19.9494 20.8241 19.2838C20.8391 19.2834 20.8542 19.2825 20.8692 19.2822C20.9 19.2819 20.9306 19.2814 20.9611 19.2818C20.9747 19.2819 20.9882 19.2824 21.0017 19.2828C21.0507 19.2838 21.0996 19.2858 21.1484 19.2887C21.1863 19.2909 21.2242 19.2933 21.2621 19.2966C21.2821 19.2984 21.302 19.3009 21.3219 19.303C21.3481 19.3058 21.3742 19.3089 21.4004 19.3122C21.401 19.313 21.4016 19.3136 21.4022 19.3144C21.4224 19.3413 21.4433 19.3676 21.4647 19.3934C21.4716 19.4016 21.4789 19.4096 21.4859 19.4177C21.502 19.4364 21.5182 19.4551 21.535 19.4733C21.5424 19.4812 21.5499 19.4889 21.5574 19.4967C21.5749 19.5151 21.5926 19.5331 21.6108 19.5508C21.6172 19.5571 21.6237 19.5633 21.6303 19.5695C21.651 19.589 21.6719 19.6081 21.6933 19.6268C21.6975 19.6305 21.7018 19.6341 21.7059 19.6377C21.7315 19.6597 21.7576 19.681 21.7842 19.7018C21.7844 19.7019 21.7847 19.7021 21.7849 19.7023C21.8709 19.7692 21.9623 19.8296 22.0586 19.8822C22.048 19.8998 22.0382 19.9178 22.0278 19.9356ZM23.0866 23.7788C22.9652 23.7788 22.8451 23.7737 22.7256 23.7662C22.6131 23.4605 22.5402 23.1442 22.5086 22.8198C22.7147 23.1659 22.9627 23.4865 23.2484 23.7746C23.1945 23.7762 23.1409 23.7788 23.0866 23.7788ZM25.8638 23.0144C25.4976 23.2202 25.1101 23.3841 24.7091 23.5029C23.7056 22.8564 23.0633 21.791 22.9601 20.5984C22.9712 20.5777 22.9828 20.5571 22.9945 20.5365C23.0059 20.5166 23.017 20.4964 23.0287 20.4766C23.0539 20.4339 23.08 20.3918 23.107 20.3501C23.1181 20.3328 23.1301 20.316 23.1415 20.2989C23.1596 20.2718 23.1777 20.2447 23.1966 20.2182C23.2095 20.1999 23.2228 20.1821 23.2359 20.1641C23.2479 20.1478 23.2601 20.1317 23.2724 20.1155C23.2765 20.1151 23.2806 20.1142 23.2849 20.1137C23.3129 20.1102 23.3408 20.1063 23.3684 20.1017C23.3808 20.0997 23.393 20.0974 23.4053 20.0951C23.4259 20.0913 23.4463 20.0873 23.4666 20.0829C23.485 20.0789 23.5033 20.0746 23.5215 20.0701C23.534 20.0671 23.5466 20.0639 23.5589 20.0605C23.5839 20.0539 23.6086 20.0469 23.6333 20.0394C23.6369 20.0382 23.6404 20.0371 23.6441 20.0359C23.8034 19.9863 23.9555 19.9181 24.0969 19.8317C24.1038 19.8441 24.1112 19.8561 24.1182 19.8684C24.1308 19.8906 24.1436 19.9124 24.1565 19.9344C24.1703 19.9579 24.1841 19.9812 24.1984 20.0043C24.214 20.0298 24.2299 20.0551 24.246 20.0803C24.2579 20.099 24.2697 20.1178 24.282 20.1364C24.2876 20.145 24.2929 20.1537 24.2986 20.1623C24.3008 20.1657 24.3036 20.1687 24.306 20.172C24.7285 20.8036 25.2927 21.3359 25.9606 21.7212C26.2837 21.9076 26.6213 22.0557 26.9708 22.1647C26.6409 22.4916 26.2707 22.7758 25.8638 23.0144ZM27.8537 21.2056C27.5108 21.1517 27.1797 21.0519 26.8636 20.908C27.2949 20.903 27.7231 20.8415 28.1371 20.7264C28.0501 20.8911 27.9556 21.0509 27.8537 21.2056ZM28.5882 19.3328C28.0376 19.6207 27.4251 19.7722 26.8063 19.7722H26.8061C26.2424 19.7722 25.6791 19.6469 25.1678 19.4086C25.155 19.3879 25.1426 19.3669 25.1303 19.3458C25.1192 19.3267 25.1077 19.3079 25.0969 19.2886C25.0725 19.2452 25.0489 19.2014 25.0261 19.1571C25.0164 19.1382 25.0074 19.119 24.9981 19.0998C24.9841 19.0714 24.9701 19.043 24.9568 19.0142C24.9472 18.9934 24.9382 18.9724 24.9289 18.9513C24.921 18.9332 24.9132 18.9151 24.9055 18.8968C25.012 18.65 25.0713 18.3784 25.0713 18.0932C25.0713 18.076 25.0704 18.0591 25.07 18.0421C25.0921 18.0424 25.1141 18.0419 25.1362 18.0418C25.1393 18.0418 25.1424 18.0421 25.1455 18.0421C25.1531 18.0421 25.1608 18.0418 25.1683 18.0417C25.2032 18.0415 25.238 18.041 25.2728 18.0401C25.3065 18.0392 25.3402 18.0378 25.3739 18.0363C25.3882 18.0356 25.4027 18.0351 25.417 18.0342C25.431 18.0335 25.4452 18.0332 25.4592 18.0323C25.4654 18.0319 25.4714 18.0305 25.4775 18.03C26.2352 17.978 26.9784 17.7563 27.6414 17.3738C27.964 17.1878 28.2608 16.97 28.5297 16.7225C28.7511 17.5705 28.773 18.4678 28.5882 19.3328ZM27.8723 14.9793C27.9738 15.1353 28.0678 15.2964 28.1539 15.4623C27.9337 15.7376 27.6783 15.9786 27.3914 16.1834C27.6028 15.8063 27.7651 15.402 27.8723 14.9793ZM24.036 16.2534C24.0425 16.2423 24.0488 16.2312 24.0552 16.22C24.1005 16.1409 24.1437 16.0606 24.1846 15.9791C24.1872 15.9737 24.1904 15.9686 24.1931 15.9633C24.1948 15.9597 24.196 15.9559 24.1977 15.9524C24.534 15.271 24.7135 14.5165 24.7135 13.7457C24.7135 13.3737 24.6732 13.008 24.5931 12.6514C25.4387 12.8838 26.2274 13.3136 26.8849 13.9059C26.8355 15.1096 26.2316 16.2111 25.2413 16.9029C25.2264 16.9032 25.2114 16.9041 25.1964 16.9044C25.1654 16.9047 25.1345 16.9052 25.1036 16.9048C25.0911 16.9047 25.0786 16.9042 25.0661 16.9039C25.0092 16.9027 24.9524 16.9001 24.8958 16.8965C24.8653 16.8944 24.8347 16.8927 24.8042 16.89C24.7832 16.8882 24.7623 16.8855 24.7414 16.8833C24.7158 16.8806 24.6903 16.8775 24.6648 16.8744C24.6637 16.8729 24.6625 16.8716 24.6615 16.8702C24.6417 16.844 24.6213 16.8183 24.6003 16.7931C24.5937 16.7851 24.5868 16.7775 24.58 16.7697C24.5635 16.7505 24.5469 16.7315 24.5299 16.713C24.523 16.7056 24.5159 16.6983 24.5088 16.6909C24.4908 16.672 24.4725 16.6532 24.4537 16.6351C24.4478 16.6294 24.4419 16.6238 24.4359 16.6182C24.4147 16.598 24.3931 16.5784 24.3711 16.5592C24.3674 16.556 24.3637 16.5528 24.3601 16.5496C24.2514 16.4562 24.1332 16.3737 24.0065 16.3046C24.0166 16.2877 24.0262 16.2705 24.036 16.2534ZM23.6929 17.4831C23.7145 17.5064 23.7349 17.531 23.754 17.5565C23.758 17.5617 23.7621 17.5671 23.766 17.5724C23.7874 17.6025 23.8076 17.6339 23.8254 17.6669C23.8432 17.6998 23.8583 17.7337 23.8716 17.7681C23.8737 17.7734 23.8756 17.7789 23.8775 17.7843C23.8893 17.8167 23.8995 17.8495 23.9075 17.8829C23.9081 17.8851 23.9087 17.8874 23.9093 17.8897C23.9266 17.965 23.9342 18.0421 23.9319 18.119C23.9319 18.1193 23.9319 18.1198 23.9318 18.1201C23.9307 18.1581 23.9271 18.196 23.9211 18.2337C23.9209 18.2348 23.9208 18.2358 23.9205 18.237C23.9082 18.313 23.8862 18.3877 23.8544 18.4591C23.8537 18.4606 23.853 18.462 23.8523 18.4634C23.8383 18.4945 23.8218 18.5248 23.804 18.5546C23.8001 18.561 23.7962 18.5675 23.7922 18.5739C23.7755 18.6003 23.7575 18.6255 23.7385 18.6497C23.735 18.6541 23.732 18.6588 23.7285 18.6632C23.7079 18.6884 23.6857 18.7119 23.6628 18.7345C23.6516 18.7455 23.6398 18.7557 23.628 18.7661C23.615 18.7777 23.6017 18.7889 23.5881 18.7996C23.5746 18.8102 23.561 18.8206 23.5469 18.8305C23.5324 18.8405 23.5175 18.8499 23.5024 18.859C23.4892 18.8671 23.4764 18.8757 23.4628 18.8831C23.4348 18.8983 23.4061 18.912 23.3765 18.9241C23.367 18.9281 23.3571 18.9312 23.3474 18.9348C23.3233 18.9437 23.299 18.952 23.2741 18.9589C23.2651 18.9615 23.2558 18.9637 23.2465 18.966C23.2179 18.9729 23.1888 18.9786 23.1593 18.9827C23.1538 18.9835 23.1484 18.9845 23.143 18.9852C23.1062 18.9897 23.0689 18.9923 23.0312 18.9923L23.0207 18.9921C23.0121 18.992 23.0035 18.9911 22.995 18.9909C22.9618 18.9895 22.9288 18.9863 22.8963 18.9813C22.8909 18.9804 22.8857 18.9797 22.8805 18.9789C22.7679 18.9595 22.6607 18.9189 22.5643 18.8601C22.5617 18.8585 22.5591 18.857 22.5565 18.8554C22.4931 18.8158 22.4346 18.7684 22.3825 18.7141C22.379 18.7104 22.3757 18.7066 22.3724 18.7029C22.3507 18.6795 22.3303 18.6549 22.3111 18.6291C22.3071 18.6239 22.3031 18.6187 22.2992 18.6133C22.2781 18.5839 22.2586 18.5531 22.241 18.5208C22.2388 18.5167 22.2368 18.5126 22.2345 18.5085C22.2296 18.4992 22.2254 18.4897 22.2208 18.4802C22.2073 18.452 22.1952 18.4231 22.1848 18.3939C22.1833 18.3896 22.1816 18.3853 22.18 18.381C22.1445 18.2755 22.129 18.1648 22.1337 18.0549C22.1337 18.0522 22.1339 18.0496 22.134 18.047C22.1397 17.9367 22.1655 17.8272 22.2113 17.7247C22.2127 17.7215 22.2144 17.7185 22.2158 17.7152C22.2289 17.687 22.2438 17.6594 22.2599 17.6323C22.2641 17.6252 22.2684 17.6181 22.2728 17.6112C22.2892 17.5853 22.3068 17.5606 22.3255 17.5369C22.3293 17.5321 22.3326 17.5269 22.3365 17.5222C22.357 17.4971 22.3791 17.4737 22.4019 17.4512C22.413 17.4402 22.4249 17.43 22.4367 17.4196C22.4499 17.4085 22.4632 17.3971 22.4769 17.3864C22.4903 17.3759 22.5038 17.3656 22.5177 17.3559C22.5326 17.3455 22.5481 17.3358 22.5636 17.3264C22.5763 17.3187 22.5886 17.3105 22.6016 17.3033C22.6299 17.2879 22.659 17.274 22.6888 17.2618C22.6976 17.2581 22.7068 17.2553 22.7158 17.2519C22.7406 17.2427 22.7658 17.2342 22.7915 17.227C22.8001 17.2247 22.8087 17.2224 22.8175 17.2203C22.8468 17.2132 22.8766 17.2074 22.9069 17.2031C22.9118 17.2024 22.9166 17.2014 22.9216 17.2008C22.9585 17.1963 22.9959 17.1937 23.0338 17.1937L23.0442 17.1939C23.0529 17.194 23.0614 17.1948 23.0699 17.1951C23.1029 17.1965 23.1356 17.1996 23.1679 17.2046C23.1736 17.2054 23.1793 17.2062 23.1848 17.2072C23.26 17.2201 23.3328 17.2422 23.4014 17.2732C23.402 17.2734 23.4024 17.2736 23.403 17.2739C23.4363 17.2891 23.4686 17.3064 23.4999 17.3254C23.5029 17.3273 23.5059 17.329 23.5088 17.3308C23.572 17.3704 23.6303 17.4176 23.6822 17.4717C23.686 17.4753 23.6893 17.4793 23.6929 17.4831ZM23.0865 12.3772C23.1668 12.3771 23.2465 12.3799 23.3261 12.3832C23.4466 12.7004 23.5238 13.0295 23.5565 13.3675C23.344 13.0104 23.0868 12.6802 22.7894 12.3849C22.8878 12.3799 22.9869 12.3772 23.0865 12.3772ZM21.4027 12.7144C22.3793 13.3636 23.0036 14.4148 23.1052 15.5882C23.0938 15.609 23.0821 15.6298 23.0703 15.6506C23.0589 15.6704 23.048 15.6905 23.0363 15.7101C23.0146 15.7468 22.9919 15.783 22.9689 15.819C22.9527 15.8444 22.9358 15.8694 22.919 15.8944C22.9027 15.9186 22.8866 15.9429 22.8697 15.9667C22.8557 15.9865 22.8412 16.006 22.8268 16.0256C22.8156 16.0409 22.8042 16.0559 22.7928 16.071C22.7886 16.0715 22.7843 16.0722 22.7801 16.0728C22.7521 16.0763 22.7244 16.0802 22.6967 16.0847C22.6843 16.0867 22.6719 16.0891 22.6596 16.0914C22.6391 16.0952 22.6189 16.0991 22.5988 16.1035C22.5801 16.1075 22.5616 16.1118 22.5432 16.1163C22.5309 16.1194 22.5187 16.1225 22.5066 16.1258C22.4813 16.1324 22.4562 16.1395 22.4313 16.1472C22.4281 16.1482 22.4249 16.1492 22.4217 16.1502C22.2621 16.1999 22.1098 16.2681 21.9682 16.3547C21.9611 16.342 21.9535 16.3296 21.9462 16.3169C21.9342 16.2958 21.9219 16.2747 21.9095 16.2537C21.8951 16.2293 21.8805 16.2049 21.8657 16.1807C21.8512 16.1569 21.8363 16.1332 21.8212 16.1097C21.8082 16.0891 21.7951 16.0686 21.7817 16.0483C21.7765 16.0403 21.7716 16.0322 21.7663 16.0243C21.7642 16.0211 21.7615 16.0184 21.7594 16.0152C21.3369 15.3834 20.7725 14.8508 20.1043 14.4653C19.8067 14.2936 19.496 14.1543 19.1749 14.0481C19.8041 13.4388 20.5691 12.979 21.4027 12.7144ZM18.2909 14.995C18.6063 15.0513 18.9112 15.146 19.2026 15.2788C18.8085 15.2834 18.4162 15.3351 18.0349 15.4321C18.1139 15.2822 18.1995 15.1366 18.2909 14.995ZM17.4592 18.0933C17.4592 17.6515 17.5106 17.2133 17.612 16.7873C18.1269 16.5429 18.692 16.4147 19.2603 16.4147C19.8236 16.4147 20.3864 16.5399 20.8975 16.7779C20.9101 16.7985 20.9225 16.8194 20.9347 16.8402C20.9459 16.8595 20.9576 16.8785 20.9685 16.8979C20.993 16.9414 21.0167 16.9853 21.0395 17.0296C21.0483 17.0469 21.0564 17.0646 21.0651 17.082C21.0801 17.1124 21.0951 17.1427 21.1092 17.1736C21.1181 17.1927 21.1265 17.2122 21.1349 17.2315C21.1433 17.2508 21.1516 17.2702 21.1599 17.2897C21.0535 17.5364 20.9942 17.8081 20.9942 18.0932C20.9942 18.1104 20.9951 18.1273 20.9955 18.1444C20.9735 18.1441 20.9515 18.1446 20.9295 18.1446C20.919 18.1446 20.9087 18.1446 20.8982 18.1447C20.8616 18.1449 20.825 18.1454 20.7885 18.1465C20.7599 18.1472 20.7313 18.1484 20.7028 18.1496C20.6823 18.1505 20.6617 18.1514 20.6412 18.1525C20.6295 18.1532 20.6178 18.1534 20.6061 18.1542C20.6012 18.1545 20.5963 18.1556 20.5914 18.1561C19.8309 18.2074 19.0882 18.4295 18.4239 18.8128C18.1315 18.9814 17.8599 19.1765 17.6109 19.3966C17.5101 18.9723 17.4592 18.5366 17.4592 18.0933ZM17.9883 20.633C18.1915 20.3946 18.4213 20.1829 18.6765 20.001C18.4876 20.3373 18.3384 20.6956 18.2318 21.0689C18.1443 20.9277 18.0634 20.7821 17.9883 20.633Z" fill="white"/>
<path d="M23.0763 27.2519C28.1823 27.2519 32.3364 23.1014 32.3364 18C32.3364 12.8985 28.1823 8.74805 23.0763 8.74805C20.0804 8.74805 17.4126 10.1774 15.719 12.3889H8.83616C8.10582 12.3889 7.51172 12.9934 7.51172 13.7364V22.3424C7.51172 23.0855 8.10582 23.6899 8.83616 23.6899H15.7795C17.4758 25.8567 20.116 27.2519 23.0763 27.2519ZM8.83616 22.5531C8.73327 22.5531 8.64953 22.4586 8.64953 22.3424V13.7364C8.64953 13.6203 8.73327 13.5258 8.83616 13.5258H14.9688C14.3761 14.5939 14.0059 15.7627 13.8728 16.9797C13.8695 17.0101 13.8658 17.0405 13.8628 17.071C13.8582 17.1162 13.8545 17.1617 13.8507 17.2071C13.8467 17.2538 13.8429 17.3005 13.8397 17.3474C13.8369 17.3866 13.8345 17.4259 13.8322 17.4653C13.8289 17.522 13.8264 17.5789 13.8241 17.636C13.8229 17.6676 13.8214 17.6993 13.8205 17.7308C13.8179 17.8203 13.8163 17.91 13.8163 18.0001C13.8163 18.0914 13.8179 18.1822 13.8205 18.2729C13.8215 18.3051 13.8229 18.3372 13.8243 18.3694C13.8265 18.4267 13.8291 18.4839 13.8324 18.541C13.8348 18.5814 13.8373 18.6217 13.8401 18.6619C13.8433 18.7078 13.8471 18.7535 13.8511 18.7992C13.8551 18.8467 13.859 18.8941 13.8638 18.9414C13.865 18.9534 13.8666 18.9654 13.8678 18.9775C14 20.2406 14.3873 21.4514 15.0132 22.5531H8.83616V22.5531ZM15.0761 19.4044C15.0632 19.331 15.0515 19.2572 15.0406 19.1831C15.0326 19.1279 15.0246 19.0726 15.0177 19.017C15.0125 18.9763 15.0081 18.9353 15.0036 18.8943C14.9968 18.8323 14.9907 18.7702 14.9853 18.7079C14.983 18.6813 14.9802 18.6547 14.9782 18.6281C14.9714 18.5389 14.9664 18.4496 14.9624 18.3598C14.9614 18.3349 14.9605 18.31 14.9595 18.285C14.9563 18.1902 14.954 18.0952 14.954 17.9998C14.954 17.9062 14.9562 17.8127 14.9594 17.7195C14.9603 17.6945 14.9612 17.6696 14.9623 17.6446C14.9661 17.5562 14.9709 17.4681 14.9776 17.3801C14.9793 17.3581 14.9815 17.3364 14.9833 17.3145C14.989 17.2474 14.9954 17.1805 15.0028 17.1137C15.007 17.0747 15.0113 17.0356 15.0162 16.9968C15.0227 16.9441 15.0301 16.8916 15.0376 16.839C15.0484 16.764 15.0601 16.6892 15.073 16.6147C15.0774 16.5892 15.0818 16.5637 15.0864 16.5382C15.7774 12.7588 19.0971 9.88486 23.0764 9.88486C27.555 9.88486 31.1986 13.5253 31.1986 17.9999C31.1986 22.4746 27.555 26.115 23.0764 26.115C19.0973 26.115 15.7776 23.2414 15.0865 19.4621C15.0829 19.4429 15.0795 19.4237 15.0761 19.4044Z" fill="white"/>
</svg>
