<!-- icon666.com - MILLIONS vector ICONS FREE --><svg version="1.1" id="Capa_1" xmlns="http://www.w3.org/2000/svg" xmlns:xlink="http://www.w3.org/1999/xlink" x="0px" y="0px" viewBox="0 0 512 512" style="enable-background:new 0 0 512 512;" xml:space="preserve"><g><g><path d="M480.452,120.243h-0.516v-32.58c0-4.142-3.358-7.5-7.5-7.5c-4.142,0-7.5,3.358-7.5,7.5v32.581h-33.097V87.662 c0-4.142-3.358-7.5-7.5-7.5c-4.142,0-7.5,3.358-7.5,7.5v32.581h-33.096V87.662c0-4.142-3.358-7.5-7.5-7.5 c-4.142,0-7.5,3.358-7.5,7.5v32.581h-33.094V87.662c0-4.142-3.358-7.5-7.5-7.5c-4.142,0-7.5,3.358-7.5,7.5v32.582h-33.101V87.66 c0-4.142-3.358-7.5-7.5-7.5c-4.142,0-7.5,3.358-7.5,7.5v32.583h-33.097V87.66c0-4.142-3.358-7.5-7.5-7.5 c-4.142,0-7.5,3.358-7.5,7.5v32.583h-33.093V87.662c0-4.142-3.358-7.5-7.5-7.5c-4.142,0-7.5,3.358-7.5,7.5v32.582h-33.091V87.662 c0-4.142-3.358-7.5-7.5-7.5c-4.142,0-7.5,3.358-7.5,7.5v32.581H95.173V87.662c0-4.142-3.358-7.5-7.5-7.5 c-4.142,0-7.5,3.358-7.5,7.5v32.581H47.078v-32.58c0-4.142-3.358-7.5-7.5-7.5c-4.142,0-7.5,3.358-7.5,7.5v32.581h-0.529 C14.152,120.243,0,134.396,0,151.792v208.419c0,17.396,14.152,31.548,31.548,31.548h0.529v32.581c0,4.142,3.358,7.5,7.5,7.5 c4.142,0,7.5-3.358,7.5-7.5v-32.581h33.095v32.581c0,4.142,3.358,7.5,7.5,7.5c4.142,0,7.5-3.358,7.5-7.5v-32.581h33.095v32.581 c0,4.142,3.358,7.5,7.5,7.5c4.142,0,7.5-3.358,7.5-7.5v-32.581h33.091v32.58c0,4.142,3.358,7.5,7.5,7.5c4.142,0,7.5-3.358,7.5-7.5 v-32.58h33.093v32.578c0,4.142,3.358,7.5,7.5,7.5c4.142,0,7.5-3.358,7.5-7.5v-32.578h33.097v32.578c0,4.142,3.358,7.5,7.5,7.5 c4.142,0,7.5-3.358,7.5-7.5v-32.578h33.101v32.58c0,4.142,3.358,7.5,7.5,7.5c4.142,0,7.5-3.358,7.5-7.5v-32.58h33.094v32.581 c0,4.142,3.358,7.5,7.5,7.5c4.142,0,7.5-3.358,7.5-7.5v-32.581h33.096v32.581c0,4.142,3.358,7.5,7.5,7.5 c4.142,0,7.5-3.358,7.5-7.5v-32.581h33.097v32.581c0,4.142,3.358,7.5,7.5,7.5c4.142,0,7.5-3.358,7.5-7.5v-32.581h0.516 c17.396,0,31.548-14.152,31.548-31.548V151.792C512,134.396,497.848,120.243,480.452,120.243z M15,219.12 c10.628,9.12,17.064,22.586,17.064,36.882c0,14.295-6.436,27.761-17.064,36.881V219.12z M496.999,360.211 c0.001,9.125-7.422,16.548-16.547,16.548H31.548c-9.125,0-16.548-7.423-16.548-16.548v-49.042 c19.623-11.255,32.064-32.409,32.064-55.168c0-22.759-12.441-43.913-32.064-55.168v-49.042c0-9.125,7.423-16.548,16.548-16.548 h448.903c9.125,0,16.548,7.423,16.548,16.548v49.042c-19.623,11.255-32.064,32.409-32.064,55.168 c0,22.759,12.441,43.912,32.064,55.168V360.211z M497,292.883c-10.628-9.12-17.064-22.586-17.064-36.881 c0-14.296,6.436-27.761,17.064-36.882V292.883z"></path></g></g><g><g><path d="M303.357,318.311l-29.029-116.114c-2.624-10.495-12.011-17.825-22.83-17.825h-7.029c-10.818,0-20.206,7.33-22.83,17.825 l-29.028,116.114c-1.005,4.018,1.438,8.09,5.457,9.095c4.015,1.007,8.091-1.438,9.095-5.457l6.596-26.383H256 c4.142,0,7.5-3.358,7.5-7.5c0-4.142-3.358-7.5-7.5-7.5h-38.491l18.683-74.731c0.952-3.805,4.355-6.463,8.278-6.463h7.029 c3.922,0,7.326,2.658,8.278,6.463l29.028,116.114c0.852,3.408,3.91,5.683,7.27,5.683c0.602,0,1.214-0.073,1.825-0.226 C301.919,326.402,304.362,322.329,303.357,318.311z"></path></g></g><g><g><path d="M416.323,184.372h-2.401c-6.501,0-12.361,4.104-14.582,10.214l-22.612,62.184c-0.069,0.19-0.124,0.34-0.485,0.34 c-0.361,0-0.416-0.15-0.485-0.34l-22.612-62.184c-2.221-6.109-8.081-10.214-14.582-10.214h-2.401 c-8.556,0-15.516,6.96-15.516,15.516V320.13c0,4.142,3.358,7.5,7.5,7.5c4.142,0,7.5-3.358,7.5-7.5V199.888 c0-0.285,0.231-0.516,0.516-0.516h2.401c0.216,0,0.411,0.137,0.485,0.34l22.612,62.184c2.256,6.205,7.979,10.214,14.582,10.214 c6.603,0,12.326-4.009,14.582-10.214l22.612-62.184c0.074-0.203,0.269-0.34,0.485-0.34h2.401c0.285,0,0.516,0.231,0.516,0.516 V320.13c0,4.142,3.358,7.5,7.5,7.5c4.142,0,7.5-3.358,7.5-7.5V199.888C431.839,191.333,424.878,184.372,416.323,184.372z"></path></g></g><g><g><path d="M148.209,270.689c19.998-3.943,35.13-21.607,35.13-42.744c0-24.026-19.547-43.573-43.573-43.573H95.677 c-4.142,0-7.5,3.358-7.5,7.5V320.13c0,4.142,3.358,7.5,7.5,7.5c4.142,0,7.5-3.358,7.5-7.5V199.372h36.589 c15.755,0,28.573,12.818,28.573,28.573s-12.818,28.573-28.573,28.573h-12.024c-4.142,0-7.5,3.358-7.5,7.5 c0,4.142,3.358,7.5,7.5,7.5h3.664l29.905,52.334c1.384,2.422,3.915,3.78,6.519,3.78c1.262,0,2.541-0.319,3.714-0.99 c3.596-2.055,4.846-6.636,2.791-10.233L148.209,270.689z"></path></g></g></svg>