<svg width="36" height="36" viewBox="0 0 36 36" fill="none" xmlns="http://www.w3.org/2000/svg">
<path d="M32.7192 32.0781H20.8708C20.5735 32.0781 20.3325 32.3206 20.3325 32.6197C20.3325 32.9189 20.5735 33.1613 20.8708 33.1613H32.7192C33.0165 33.1613 33.2575 32.9189 33.2575 32.6197C33.2574 32.3206 33.0165 32.0781 32.7192 32.0781Z" fill="white"/>
<path d="M18.0274 32.0781H15.8879C15.5906 32.0781 15.3496 32.3206 15.3496 32.6197C15.3496 32.9189 15.5906 33.1613 15.8879 33.1613H18.0274C18.3247 33.1613 18.5656 32.9189 18.5656 32.6197C18.5656 32.3206 18.3247 32.0781 18.0274 32.0781Z" fill="white"/>
<path d="M32.7191 29.0107H15.8879C15.5906 29.0107 15.3496 29.2532 15.3496 29.5524C15.3496 29.8515 15.5906 30.094 15.8879 30.094H32.7191C33.0164 30.094 33.2573 29.8515 33.2573 29.5524C33.2573 29.2532 33.0164 29.0107 32.7191 29.0107Z" fill="white"/>
<path d="M32.7191 25.9434H15.8879C15.5906 25.9434 15.3496 26.1858 15.3496 26.485C15.3496 26.7841 15.5906 27.0266 15.8879 27.0266H32.7191C33.0164 27.0266 33.2573 26.7841 33.2573 26.485C33.2573 26.1858 33.0164 25.9434 32.7191 25.9434Z" fill="white"/>
<path d="M32.2665 6.44336C31.4965 5.66869 30.244 5.66855 29.4741 6.44336C28.7043 7.21809 28.7043 8.47855 29.4741 9.25321C29.8471 9.62848 30.3429 9.83508 30.8704 9.83508C31.3978 9.83508 31.8936 9.62841 32.2666 9.25321C32.6394 8.87794 32.8448 8.37907 32.8448 7.84835C32.8448 7.31757 32.6394 6.8187 32.2665 6.44336ZM31.5052 8.48725C31.1553 8.83959 30.5854 8.83959 30.2354 8.48725C29.8852 8.13497 29.8852 7.56167 30.2354 7.20946C30.4104 7.03329 30.6403 6.9452 30.8703 6.9452C31.1003 6.9452 31.3303 7.03329 31.5053 7.20946C31.8554 7.56167 31.8554 8.13497 31.5052 8.48725Z" fill="white"/>
<path d="M25.6996 6.44319C25.3266 6.06792 24.8308 5.86133 24.3034 5.86133C23.7759 5.86133 23.2801 6.068 22.9072 6.44319C22.1374 7.21793 22.1374 8.47838 22.9072 9.25298C23.2801 9.62832 23.7759 9.83491 24.3034 9.83491C24.8308 9.83491 25.3266 9.62832 25.6996 9.25305C26.4694 8.47838 26.4694 7.21786 25.6996 6.44319ZM24.9384 8.48694C24.7688 8.6576 24.5433 8.75163 24.3034 8.75163C24.0636 8.75163 23.838 8.65767 23.6685 8.48694C23.3184 8.13474 23.3184 7.56143 23.6685 7.20909C23.838 7.03843 24.0636 6.94447 24.3034 6.94447C24.5433 6.94447 24.7688 7.0385 24.9384 7.20909C25.2885 7.56143 25.2885 8.13474 24.9384 8.48694Z" fill="white"/>
<path d="M19.1329 6.44337C18.3628 5.66856 17.1103 5.6687 16.3405 6.4433C15.9675 6.81864 15.7622 7.31751 15.7622 7.84829C15.7622 8.37901 15.9676 8.87788 16.3405 9.25322C16.7135 9.62849 17.2092 9.83509 17.7366 9.83509C18.2641 9.83509 18.7599 9.62842 19.1329 9.25322C19.9027 8.47855 19.9027 7.21803 19.1329 6.44337ZM18.3716 8.48711C18.0215 8.83953 17.4516 8.83946 17.1017 8.48711C16.7516 8.13484 16.7516 7.56153 17.1017 7.20933C17.2767 7.03316 17.5067 6.94507 17.7367 6.94507C17.9666 6.94507 18.1966 7.03316 18.3716 7.20933C18.7217 7.56153 18.7217 8.13484 18.3716 8.48711Z" fill="white"/>
<path d="M13.4651 30.5175C12.6847 29.7324 11.4151 29.7324 10.6348 30.5175C9.8545 31.3026 9.8545 32.5802 10.6348 33.3655C11.0249 33.758 11.5374 33.9544 12.0499 33.9544C12.5624 33.9544 13.0749 33.758 13.4651 33.3655V33.3654C14.2454 32.5802 14.2454 31.3026 13.4651 30.5175ZM12.7038 32.5995C12.3433 32.9624 11.7565 32.9624 11.396 32.5996C11.0354 32.2367 11.0354 31.6464 11.396 31.2835C11.5762 31.1021 11.813 31.0114 12.0499 31.0114C12.2867 31.0114 12.5235 31.1021 12.7038 31.2835C13.0644 31.6464 13.0644 32.2367 12.7038 32.5995Z" fill="white"/>
<path d="M13.465 25.7392C12.6847 24.9542 11.4151 24.954 10.6348 25.7393C9.8545 26.5245 9.8545 27.8021 10.6348 28.5873C11.0249 28.9798 11.5374 29.1762 12.0499 29.1762C12.5624 29.1762 13.0749 28.9798 13.4651 28.5873C14.2453 27.8022 14.2453 26.5245 13.465 25.7392ZM12.7038 27.8213C12.3433 28.1841 11.7565 28.1841 11.396 27.8213C11.0354 27.4585 11.0354 26.8682 11.396 26.5053C11.5762 26.3238 11.813 26.2331 12.0499 26.2331C12.2867 26.2331 12.5235 26.3238 12.7038 26.5052C13.0644 26.8682 13.0644 27.4585 12.7038 27.8213Z" fill="white"/>
<path d="M8.63154 30.5175C7.85114 29.7324 6.58158 29.7325 5.80126 30.5175C5.021 31.3026 5.021 32.5802 5.80126 33.3655C6.19149 33.7581 6.70379 33.9543 7.21643 33.9543C7.7288 33.9543 8.24145 33.758 8.63154 33.3655L8.63161 33.3654C9.41187 32.5802 9.41187 31.3026 8.63154 30.5175ZM7.87034 32.5995C7.50971 32.9624 6.92302 32.9623 6.56246 32.5996C6.2019 32.2367 6.2019 31.6463 6.56246 31.2835C6.74274 31.102 6.97955 31.0113 7.21636 31.0113C7.45318 31.0113 7.68999 31.102 7.87027 31.2835C8.23083 31.6463 8.23083 32.2367 7.87034 32.5995Z" fill="white"/>
<path d="M8.63147 25.7392C7.85114 24.9541 6.58158 24.9541 5.80126 25.7393C5.021 26.5245 5.021 27.802 5.80126 28.5872C6.19149 28.9798 6.70379 29.176 7.21643 29.176C7.7288 29.176 8.24145 28.9798 8.63154 28.5872C9.41173 27.8021 9.4118 26.5245 8.63147 25.7392ZM7.87034 27.8212C7.50971 28.1841 6.92302 28.184 6.56246 27.8212C6.2019 27.4585 6.2019 26.8681 6.56246 26.5052C6.74274 26.3237 6.97948 26.233 7.21636 26.233C7.4531 26.233 7.68999 26.3238 7.87027 26.5051C8.23083 26.8681 8.23083 27.4585 7.87034 27.8212Z" fill="white"/>
<path d="M28.8193 16.5011C28.2766 16.0258 27.2515 15.937 25.6912 16.2315C25.9659 15.3645 26.4094 14.6564 26.6686 14.2882C26.8442 14.0389 26.8822 13.7206 26.7704 13.4365C26.6586 13.1524 26.4142 12.9466 26.1168 12.886C24.5297 12.5621 23.5361 12.6609 23.0798 13.1885C22.6073 13.7347 22.5192 14.7662 22.8119 16.3361C21.9502 16.0597 21.2466 15.6135 20.8805 15.3524C20.6328 15.176 20.3164 15.1377 20.0342 15.2501C19.752 15.3626 19.5475 15.6085 19.4871 15.9079C19.1652 17.505 19.2636 18.5046 19.7877 18.9638C20.1224 19.2569 20.6403 19.4031 21.3538 19.4031C21.7975 19.4031 22.3178 19.3459 22.9159 19.2331C22.6411 20.1002 22.1976 20.8085 21.9383 21.1769C21.7629 21.4261 21.7248 21.7444 21.8366 22.0285C21.9484 22.3124 22.1928 22.5183 22.4903 22.579C23.0966 22.7027 23.6161 22.7648 24.0523 22.7648C24.7579 22.7647 25.2452 22.6024 25.5272 22.2764C25.9997 21.7304 26.0879 20.6988 25.7951 19.1287C26.657 19.4053 27.3604 19.8515 27.7265 20.1125C27.8803 20.2221 28.0606 20.2784 28.2427 20.2784C28.3539 20.2784 28.4658 20.2574 28.5728 20.2148C28.855 20.1023 29.0595 19.8564 29.1199 19.5571C29.4418 17.96 29.3435 16.9603 28.8193 16.5011ZM20.495 18.1473C20.4221 18.0758 20.2788 17.6045 20.4905 16.3964C20.9573 16.7068 21.5865 17.0604 22.3268 17.3163C22.299 17.45 22.2842 17.5883 22.2841 17.73C22.2841 17.7308 22.284 17.7317 22.284 17.7324C22.284 17.7324 22.284 17.7325 22.284 17.7326C22.284 17.7718 22.2854 17.8107 22.2876 17.8493C22.2883 17.8626 22.2896 17.8756 22.2906 17.8887C22.2925 17.9141 22.2947 17.9393 22.2975 17.9644C22.2993 17.9801 22.3013 17.9959 22.3035 18.0115C22.3066 18.034 22.3101 18.0563 22.3139 18.0786C22.3167 18.0949 22.3194 18.1112 22.3226 18.1273C22.3271 18.1503 22.3323 18.1729 22.3375 18.1957C22.3403 18.2078 22.3425 18.2201 22.3455 18.2321C21.2568 18.3979 20.6718 18.3022 20.495 18.1473ZM24.7156 21.5645C24.6446 21.638 24.1763 21.7822 22.9755 21.5692C23.2842 21.0994 23.6356 20.4663 23.8899 19.7214C23.9994 19.7444 24.1122 19.7581 24.2274 19.7624C24.2329 19.7626 24.2383 19.7627 24.2438 19.7628C24.2637 19.7634 24.2834 19.7643 24.3034 19.7643C24.3148 19.7643 24.326 19.7636 24.3374 19.7635C24.3456 19.7633 24.3538 19.763 24.362 19.7628C24.3904 19.762 24.4188 19.7606 24.4469 19.7586C24.457 19.7579 24.467 19.7572 24.477 19.7563C24.5027 19.7541 24.5283 19.7513 24.5538 19.7481C24.5659 19.7466 24.578 19.7451 24.5901 19.7434C24.6124 19.7403 24.6345 19.7364 24.6566 19.7325C24.6713 19.7299 24.6862 19.7275 24.7008 19.7245C24.7191 19.7209 24.7372 19.7165 24.7552 19.7124C24.7701 19.709 24.7851 19.7061 24.7998 19.7024C24.9647 20.798 24.8695 21.3867 24.7156 21.5645ZM25.2462 17.7327C25.2462 17.7607 25.2444 17.7883 25.242 17.8157C25.2412 17.8252 25.2402 17.8347 25.239 17.8442C25.2369 17.8623 25.234 17.8803 25.2308 17.8982C25.2267 17.9209 25.2219 17.9434 25.2162 17.9656C25.2142 17.9736 25.2123 17.9816 25.2101 17.9895C25.2048 18.0081 25.199 18.0266 25.1926 18.0448C25.1921 18.0462 25.1915 18.0477 25.191 18.0491C25.1698 18.1086 25.1426 18.1663 25.1097 18.2212C25.1091 18.2222 25.1087 18.2233 25.1081 18.2242C25.0474 18.3242 24.9693 18.4119 24.8775 18.4832C24.8769 18.4836 24.8764 18.4839 24.8758 18.4843C24.8003 18.5426 24.7182 18.5878 24.6319 18.6205C24.6202 18.6248 24.6087 18.6294 24.5968 18.6334C24.5843 18.6376 24.5715 18.6411 24.5588 18.6447C24.543 18.6492 24.5271 18.6534 24.511 18.6571C24.4998 18.6597 24.4885 18.6621 24.4771 18.6642C24.4582 18.6677 24.4392 18.6706 24.4199 18.673C24.4103 18.6742 24.4009 18.6756 24.3914 18.6765C24.3623 18.6792 24.3331 18.6809 24.3034 18.6809C24.2755 18.6809 24.2479 18.6791 24.2206 18.6767C24.2113 18.6759 24.2019 18.6749 24.1925 18.6737C24.1743 18.6715 24.1563 18.6686 24.1384 18.6654C24.1163 18.6613 24.0944 18.6565 24.0726 18.6509C24.0643 18.6488 24.056 18.6468 24.0478 18.6444C24.0295 18.6391 24.0113 18.6334 23.9933 18.627C23.9916 18.6264 23.9899 18.6257 23.9883 18.6251C23.9293 18.6038 23.8721 18.5765 23.8177 18.5434C23.8167 18.5428 23.8157 18.5424 23.8147 18.5418C23.7157 18.4811 23.6287 18.4028 23.5579 18.3108C23.5573 18.3099 23.5568 18.3089 23.5562 18.3081C23.4982 18.2321 23.4533 18.1494 23.4207 18.0624C23.4163 18.0508 23.4118 18.0393 23.4079 18.0274C23.4038 18.0147 23.4002 18.0019 23.3966 17.9891C23.3922 17.9732 23.388 17.9573 23.3843 17.9411C23.3817 17.9297 23.3794 17.9183 23.3772 17.9068C23.3737 17.8879 23.3709 17.8688 23.3685 17.8495C23.3673 17.8398 23.3659 17.8302 23.3649 17.8205C23.3623 17.7915 23.3605 17.7622 23.3605 17.7324C23.3605 17.7322 23.3605 17.7322 23.3605 17.732C23.3606 17.7043 23.3623 17.6766 23.3648 17.6491C23.3656 17.6397 23.3666 17.6303 23.3677 17.6209C23.3698 17.6025 23.3728 17.5844 23.376 17.5663C23.38 17.544 23.3848 17.522 23.3904 17.5C23.3925 17.4917 23.3945 17.4834 23.3967 17.4752C23.402 17.4567 23.4077 17.4383 23.4141 17.4201C23.4146 17.4185 23.4153 17.4169 23.4158 17.4153C23.4371 17.3558 23.4642 17.2982 23.4971 17.2434C23.4976 17.2426 23.498 17.2416 23.4985 17.2406C23.5592 17.1404 23.6376 17.0525 23.7297 16.9811C23.7301 16.9808 23.7306 16.9806 23.7309 16.9803C23.8064 16.922 23.8885 16.8769 23.9748 16.8442C23.9865 16.8398 23.998 16.8352 24.0099 16.8313C24.0224 16.8271 24.0352 16.8236 24.0479 16.82C24.0637 16.8155 24.0796 16.8113 24.0957 16.8076C24.1069 16.805 24.1183 16.8026 24.1297 16.8005C24.1485 16.797 24.1676 16.7941 24.1868 16.7917C24.1964 16.7905 24.2058 16.7891 24.2154 16.7882C24.2444 16.7855 24.2737 16.7837 24.3033 16.7837C24.3312 16.7837 24.3587 16.7856 24.3861 16.788C24.3955 16.7888 24.4049 16.7898 24.4143 16.7909C24.4324 16.7931 24.4502 16.796 24.4681 16.7992C24.4905 16.8033 24.5129 16.8082 24.5349 16.8139C24.5429 16.816 24.551 16.8179 24.5588 16.8202C24.5773 16.8255 24.5956 16.8313 24.6137 16.8377C24.6152 16.8383 24.6168 16.8388 24.6183 16.8394C24.6775 16.8608 24.7348 16.8881 24.7893 16.9212C24.79 16.9216 24.7907 16.9219 24.7914 16.9223C24.8908 16.9832 24.978 17.0616 25.0489 17.1539C25.0495 17.1548 25.0499 17.1557 25.0505 17.1565C25.1084 17.2322 25.1532 17.3147 25.1857 17.4013C25.1902 17.4133 25.1949 17.4251 25.1989 17.4373C25.203 17.4498 25.2064 17.4625 25.21 17.4751C25.2145 17.4912 25.2188 17.5074 25.2225 17.5238C25.225 17.535 25.2273 17.5462 25.2294 17.5575C25.233 17.5766 25.2358 17.596 25.2383 17.6155C25.2395 17.6249 25.2409 17.6343 25.2417 17.6438C25.2445 17.673 25.2462 17.7025 25.2462 17.7324C25.2462 17.7325 25.2462 17.7326 25.2462 17.7327ZM24.7169 15.7435C24.6073 15.7204 24.4944 15.7067 24.3791 15.7024C24.3739 15.7022 24.3687 15.7022 24.3634 15.702C24.3434 15.7014 24.3235 15.7004 24.3034 15.7004C24.292 15.7004 24.2808 15.7011 24.2694 15.7013C24.2611 15.7014 24.2529 15.7017 24.2447 15.7019C24.2165 15.7027 24.1884 15.7041 24.1605 15.7061C24.15 15.7068 24.1396 15.7076 24.1292 15.7085C24.1041 15.7107 24.079 15.7134 24.0541 15.7165C24.0413 15.7181 24.0286 15.7196 24.0159 15.7214C23.9943 15.7245 23.9729 15.7282 23.9516 15.7319C23.9362 15.7346 23.9208 15.7372 23.9055 15.7402C23.8877 15.7438 23.8702 15.748 23.8526 15.7521C23.8374 15.7556 23.822 15.7585 23.8069 15.7623C23.642 14.6668 23.7372 14.0782 23.8912 13.9003C23.9345 13.8554 24.1264 13.784 24.5434 13.784C24.8085 13.784 25.1644 13.8128 25.6311 13.8957C25.3226 14.3655 24.9712 14.9985 24.7169 15.7435ZM28.1164 19.0685C27.6496 18.7581 27.0205 18.4045 26.2801 18.1485C26.308 18.0142 26.3228 17.8751 26.3228 17.7325C26.3228 17.7324 26.3228 17.7324 26.3228 17.7324C26.3228 17.7323 26.3228 17.7322 26.3228 17.732C26.3228 17.693 26.3214 17.6543 26.3193 17.6158C26.3185 17.6023 26.3172 17.589 26.3162 17.5756C26.3143 17.5505 26.3122 17.5256 26.3093 17.5008C26.3075 17.4849 26.3055 17.469 26.3033 17.4531C26.3003 17.4308 26.2968 17.4087 26.293 17.3867C26.2901 17.3703 26.2874 17.3538 26.2842 17.3375C26.2797 17.3145 26.2745 17.2918 26.2692 17.2691C26.2664 17.2571 26.2643 17.2448 26.2612 17.2329C27.3494 17.0669 27.9343 17.1627 28.112 17.3178C28.185 17.3899 28.328 17.8614 28.1164 19.0685Z" fill="white"/>
<path d="M24.3034 11.2578C20.756 11.2578 17.8699 14.162 17.8699 17.7316C17.8699 21.3012 20.756 24.2053 24.3034 24.2053C27.8508 24.2053 30.7369 21.3012 30.7369 17.7316C30.7369 14.162 27.8508 11.2578 24.3034 11.2578ZM24.3034 23.122C21.3495 23.122 18.9464 20.7039 18.9464 17.7316C18.9464 14.7592 21.3496 12.341 24.3034 12.341C27.2573 12.341 29.6604 14.7592 29.6604 17.7316C29.6604 20.7039 27.2573 23.122 24.3034 23.122Z" fill="white"/>
<path d="M33.8953 1.27156H30.1925V0.853555C30.1925 0.382911 29.812 0 29.3442 0H20.344C19.8763 0 19.4957 0.38284 19.4957 0.853555V1.27156H17.8049V0.853555C17.8049 0.382911 17.4245 0 16.9567 0H14.8117C14.344 0 13.9635 0.38284 13.9635 0.853555V1.27156H9.16226C8.86498 1.27156 8.62402 1.51403 8.62402 1.81317C8.62402 2.11231 8.86498 2.35478 9.16226 2.35478H13.9635V3.01192C13.9635 3.48257 14.3439 3.86548 14.8117 3.86548H16.9567C17.4244 3.86548 17.8049 3.48264 17.8049 3.01192V2.35478H19.4957V3.01192C19.4957 3.48257 19.8762 3.86548 20.344 3.86548H29.3442C29.812 3.86548 30.1925 3.48264 30.1925 3.01192V2.35478H33.8953C34.4622 2.35478 34.9235 2.81891 34.9235 3.38939V33.8821C34.9235 34.4526 34.4622 34.9167 33.8953 34.9167H3.59212C3.02519 34.9167 2.56394 34.4526 2.56394 33.8821V33.2678H3.14936C3.62896 33.2678 4.01912 32.8752 4.01912 32.3926V27.2577C4.01912 26.7751 3.62896 26.3825 3.14936 26.3825H2.56394V3.38939C2.56394 2.81891 3.02519 2.35478 3.59212 2.35478H6.29162C6.5889 2.35478 6.82986 2.11231 6.82986 1.81317C6.82986 1.51403 6.5889 1.27156 6.29162 1.27156H3.59212C2.43161 1.27156 1.48746 2.22155 1.48746 3.38939V26.3825H0.869764C0.390163 26.3825 0 26.7751 0 27.2577V32.3926C0 32.8752 0.390163 33.2678 0.869764 33.2678H1.48753V33.8821C1.48753 35.0499 2.43161 35.9999 3.59219 35.9999H33.8953C35.0558 35.9999 36 35.0499 36 33.8821V3.38939C35.9999 2.22155 35.0558 1.27156 33.8953 1.27156ZM16.7284 2.78219H15.04V1.08322H16.7284V2.78219ZM29.1159 2.78219H20.5722V1.08322H29.1159V2.78219ZM1.07648 32.1845V27.4657H2.94264V32.1844C2.94215 32.1844 1.07697 32.1845 1.07648 32.1845Z" fill="white"/>
<path d="M11.7113 8.1587C12.0086 8.1587 12.2495 7.91623 12.2495 7.61709C12.2495 7.31795 12.0086 7.07548 11.7113 7.07548H10.9647V5.87411H11.7113C12.0086 5.87411 12.2495 5.63164 12.2495 5.3325C12.2495 5.03336 12.0086 4.79089 11.7113 4.79089H10.9647V4.66382C10.9646 4.07049 10.4851 3.58789 9.89562 3.58789H6.28402C5.69452 3.58789 5.21499 4.07049 5.21499 4.66368V4.79075H4.46842C4.17114 4.79075 3.93018 5.03322 3.93018 5.33236C3.93018 5.6315 4.17114 5.87397 4.46842 5.87397H5.21506V7.07534H4.46842C4.17114 7.07534 3.93018 7.31781 3.93018 7.61695C3.93018 7.91609 4.17114 8.15855 4.46842 8.15855H5.21506V9.35993H4.46842C4.17114 9.35993 3.93018 9.6024 3.93018 9.90154C3.93018 10.2007 4.17114 10.4431 4.46842 10.4431H5.21506V11.6445H4.46842C4.17114 11.6445 3.93018 11.887 3.93018 12.1861C3.93018 12.4853 4.17114 12.7277 4.46842 12.7277H5.21506V13.9291H4.46842C4.17114 13.9291 3.93018 14.1716 3.93018 14.4707C3.93018 14.7699 4.17114 15.0123 4.46842 15.0123H5.21506V16.2137H4.46842C4.17114 16.2137 3.93018 16.4562 3.93018 16.7553C3.93018 17.0544 4.17114 17.2969 4.46842 17.2969H5.21506V18.4982H4.46842C4.17114 18.4982 3.93018 18.7407 3.93018 19.0398C3.93018 19.339 4.17114 19.5814 4.46842 19.5814H5.21506V20.7828H4.46842C4.17114 20.7828 3.93018 21.0253 3.93018 21.3244C3.93018 21.6236 4.17114 21.866 4.46842 21.866H5.21506V22.2764C5.21506 22.8696 5.69459 23.3521 6.28409 23.3521H9.89562C10.4851 23.3521 10.9647 22.8696 10.9647 22.2764V21.866H11.7113C12.0086 21.866 12.2495 21.6236 12.2495 21.3244C12.2495 21.0253 12.0086 20.7828 11.7113 20.7828H10.9647V19.5814H11.7113C12.0086 19.5814 12.2495 19.339 12.2495 19.0398C12.2495 18.7407 12.0086 18.4982 11.7113 18.4982H10.9647V17.2971H11.7113C12.0086 17.2971 12.2495 17.0546 12.2495 16.7554C12.2495 16.4563 12.0086 16.2138 11.7113 16.2138H10.9647V15.0125H11.7113C12.0086 15.0125 12.2495 14.77 12.2495 14.4709C12.2495 14.1717 12.0086 13.9292 11.7113 13.9292H10.9647V12.7279H11.7113C12.0086 12.7279 12.2495 12.4854 12.2495 12.1863C12.2495 11.8871 12.0086 11.6447 11.7113 11.6447H10.9647V10.4433H11.7113C12.0086 10.4433 12.2495 10.2008 12.2495 9.90168C12.2495 9.60254 12.0086 9.36007 11.7113 9.36007H10.9647V8.1587H11.7113ZM9.88816 22.269H6.29155V4.67118H9.88816V22.269Z" fill="white"/>
<path d="M18.4085 24.4311C18.7865 24.4311 19.093 24.1228 19.093 23.7424C19.093 23.3621 18.7865 23.0537 18.4085 23.0537C18.0305 23.0537 17.7241 23.3621 17.7241 23.7424C17.7241 24.1228 18.0305 24.4311 18.4085 24.4311Z" fill="white"/>
<path d="M18.4085 12.5669C18.7865 12.5669 19.093 12.2585 19.093 11.8782C19.093 11.4978 18.7865 11.1895 18.4085 11.1895C18.0305 11.1895 17.7241 11.4978 17.7241 11.8782C17.7241 12.2585 18.0305 12.5669 18.4085 12.5669Z" fill="white"/>
<path d="M30.1991 24.4311C30.5771 24.4311 30.8835 24.1228 30.8835 23.7424C30.8835 23.3621 30.5771 23.0537 30.1991 23.0537C29.8211 23.0537 29.5146 23.3621 29.5146 23.7424C29.5146 24.1228 29.8211 24.4311 30.1991 24.4311Z" fill="white"/>
<path d="M30.1991 12.5669C30.5771 12.5669 30.8835 12.2585 30.8835 11.8782C30.8835 11.4978 30.5771 11.1895 30.1991 11.1895C29.8211 11.1895 29.5146 11.4978 29.5146 11.8782C29.5146 12.2585 29.8211 12.5669 30.1991 12.5669Z" fill="white"/>
</svg>
