<svg width="36" height="36" viewBox="0 0 36 36" fill="none" xmlns="http://www.w3.org/2000/svg">
<path d="M35.4375 0H0.5625C0.251859 0 0 0.262156 0 0.585496V23.8727C0 24.196 0.251859 24.4582 0.5625 24.4582H5.05983C5.01877 24.7567 4.99774 25.0605 4.99774 25.3677C4.99774 28.8771 7.74063 31.7322 11.1121 31.7322H25.0848V33.1404C25.0848 33.2258 25.1027 33.3102 25.1374 33.3876C25.5459 34.3009 26.9395 34.7808 27.8916 34.7808C27.9008 34.7808 27.9101 34.7808 27.9193 34.7807C28.3087 35.1552 28.8016 35.3927 29.3342 35.4579C29.356 35.4605 29.3779 35.4619 29.3999 35.4619H31.3616C31.5425 35.7894 31.8764 36 32.2751 36C32.8707 36 33.3198 35.5296 33.3198 34.9058V34.8501H35.4375C35.7481 34.8501 36 34.5879 36 34.2646C36 33.9412 35.7481 33.6791 35.4375 33.6791H33.3198V28.9877H35.4375C35.7481 28.9877 36 28.7256 36 28.4022C36 28.0789 35.7481 27.8167 35.4375 27.8167H33.3198V27.761C33.3198 27.4401 33.2006 27.153 32.9843 26.9526C32.7959 26.7779 32.5471 26.6817 32.2837 26.6817C31.885 26.6817 31.5505 26.8862 31.3671 27.2048H29.3998C29.3778 27.2048 29.356 27.2062 29.3342 27.2089C28.8015 27.2741 28.3085 27.5116 27.9192 27.886C26.9686 27.8776 25.5497 28.3571 25.1374 29.2791C25.1027 29.3565 25.0848 29.4408 25.0848 29.5262V30.5612H11.1121C8.36093 30.5612 6.12274 28.2314 6.12274 25.3677C6.12274 25.0594 6.14883 24.7553 6.19938 24.4582H35.4375C35.7481 24.4582 36 24.196 36 23.8727V0.585496C36 0.262156 35.7481 0 35.4375 0ZM26.2098 29.6871C26.4901 29.3215 27.4685 28.9813 28.0652 29.0675C28.2545 29.0948 28.4446 29.0199 28.5692 28.8687C28.7914 28.5989 29.0981 28.4247 29.4356 28.3758H31.7784C31.9434 28.3758 32.0918 28.3004 32.1948 28.1812L32.1945 34.4824C32.0916 34.3648 31.9433 34.2909 31.7784 34.2909H29.4356C29.0981 34.242 28.7915 34.0678 28.5692 33.798C28.4446 33.6468 28.2544 33.5717 28.0652 33.5992C27.4686 33.6856 26.4902 33.3453 26.2098 32.9796V29.6871ZM34.875 23.2872H6.54096C6.82263 22.6203 7.24071 22.0165 7.77677 21.5146H14.5433C14.8539 21.5146 15.1058 21.2525 15.1058 20.9291V18.2485C15.1058 17.9252 14.8539 17.663 14.5433 17.663H7.6808C7.37016 17.663 7.1183 17.9252 7.1183 18.2485V20.5575C6.28952 21.3023 5.68027 22.2424 5.33264 23.2872H1.125V1.17099H34.875V23.2872ZM11.1121 19.0034C10.0973 19.0034 9.12192 19.2595 8.24337 19.7507V18.8341H13.9809V20.3437H9.84839C10.2566 20.2321 10.6799 20.1744 11.1121 20.1744C11.4228 20.1744 11.6746 19.9123 11.6746 19.5889C11.6746 19.2656 11.4228 19.0034 11.1121 19.0034ZM25.1719 19.8405C29.204 19.8405 32.4844 16.426 32.4844 12.229C32.4844 8.03205 29.204 4.61758 25.1719 4.61758C21.1397 4.61758 17.8594 8.03205 17.8594 12.229C17.8594 16.426 21.1397 19.8405 25.1719 19.8405ZM20.4191 8.11006L21.319 9.04678C20.7608 9.77741 20.3901 10.6691 20.283 11.6436H19.0102C19.1265 10.3067 19.6367 9.08645 20.4191 8.11006ZM31.3335 11.6436H30.0607C29.9537 10.6691 29.5829 9.77734 29.0248 9.04671L29.9246 8.11006C30.707 9.08652 31.2173 10.3067 31.3335 11.6436ZM29.9246 16.3481L29.0248 15.4115C29.5829 14.6809 29.9537 13.7891 30.0607 12.8146H31.3335C31.2173 14.1515 30.707 15.3717 29.9246 16.3481ZM25.1719 10.7653C25.9473 10.7653 26.5782 11.4219 26.5782 12.2291C26.5782 13.0363 25.9473 13.6929 25.1719 13.6929C24.3965 13.6929 23.7656 13.0363 23.7656 12.2291C23.7656 11.4219 24.3965 10.7653 25.1719 10.7653ZM23.8255 14.4586C24.0632 14.6147 24.3274 14.7306 24.6094 14.7974V16.1375C23.9818 16.0401 23.4041 15.7823 22.9158 15.4054L23.8255 14.4586ZM25.7344 14.7975C26.0164 14.7306 26.2806 14.6147 26.5183 14.4587L27.428 15.4056C26.9397 15.7823 26.3618 16.0402 25.7343 16.1376V14.7975H25.7344ZM27.3138 13.6306C27.4638 13.3831 27.5751 13.1081 27.6394 12.8146H28.9268C28.8332 13.4678 28.5855 14.0692 28.2235 14.5775L27.3138 13.6306ZM27.6394 11.6436C27.5752 11.35 27.4638 11.0751 27.3139 10.8276L28.2236 9.88075C28.5856 10.3891 28.8333 10.9905 28.9269 11.6437H27.6394V11.6436ZM26.5184 9.99961C26.2806 9.8435 26.0165 9.72757 25.7344 9.66068V8.32062C26.3619 8.41804 26.9397 8.67587 27.4281 9.05271L26.5184 9.99961ZM24.6094 9.66068C24.3273 9.72757 24.0631 9.8435 23.8255 9.99961L22.9158 9.05271C23.4041 8.67587 23.9818 8.41804 24.6094 8.32062V9.66068ZM23.0299 10.8276C22.88 11.0751 22.7687 11.35 22.7044 11.6436H21.417C21.5106 10.9904 21.7583 10.389 22.1202 9.88075L23.0299 10.8276ZM22.7043 12.8146C22.7686 13.1081 22.88 13.3832 23.0299 13.6306L22.1202 14.5774C21.7582 14.0691 21.5105 13.4677 21.4169 12.8145H22.7043V12.8146ZM22.1145 16.2395C22.8165 16.8205 23.6732 17.2063 24.6094 17.3178V18.6426C23.325 18.5216 22.1527 17.9905 21.2147 17.1762L22.1145 16.2395ZM25.7344 17.3178C26.6706 17.2063 27.5273 16.8205 28.2293 16.2395L29.1291 17.1762C28.1911 17.9905 27.0188 18.5216 25.7344 18.6426V17.3178ZM28.2293 8.21867C27.5273 7.63772 26.6706 7.2518 25.7344 7.14041V5.81551C27.0188 5.93656 28.1911 6.46768 29.1291 7.28203L28.2293 8.21867ZM24.6094 7.14041C23.6732 7.25187 22.8164 7.63772 22.1145 8.21867L21.2147 7.28195C22.1527 6.46768 23.325 5.93656 24.6094 5.81551V7.14041ZM20.2831 12.8146C20.3901 13.7891 20.7609 14.6809 21.319 15.4115L20.4192 16.3482C19.6368 15.3718 19.1265 14.1516 19.0103 12.8147H20.2831V12.8146ZM3.76165 5.7817C4.75031 5.7817 5.55462 4.94451 5.55462 3.91543C5.55462 2.88635 4.75031 2.04916 3.76165 2.04916C2.77298 2.04916 1.96868 2.88635 1.96868 3.91543C1.96868 4.94451 2.77298 5.7817 3.76165 5.7817ZM3.76165 3.22015C4.12995 3.22015 4.42962 3.53207 4.42962 3.91543C4.42962 4.29878 4.12995 4.6107 3.76165 4.6107C3.39335 4.6107 3.09368 4.29878 3.09368 3.91543C3.09368 3.53207 3.39335 3.22015 3.76165 3.22015ZM32.2384 5.7817C33.227 5.7817 34.0313 4.94451 34.0313 3.91543C34.0313 2.88635 33.227 2.04916 32.2384 2.04916C31.2497 2.04916 30.4454 2.88635 30.4454 3.91543C30.4454 4.94451 31.2497 5.7817 32.2384 5.7817ZM32.2384 3.22015C32.6066 3.22015 32.9063 3.53207 32.9063 3.91543C32.9063 4.29878 32.6066 4.6107 32.2384 4.6107C31.8701 4.6107 31.5704 4.29878 31.5704 3.91543C31.5704 3.53207 31.8701 3.22015 32.2384 3.22015ZM3.76165 22.409C4.75031 22.409 5.55462 21.5718 5.55462 20.5428C5.55462 19.5137 4.75031 18.6765 3.76165 18.6765C2.77298 18.6765 1.96868 19.5137 1.96868 20.5428C1.96868 21.5718 2.77298 22.409 3.76165 22.409ZM3.76165 19.8475C4.12995 19.8475 4.42962 20.1594 4.42962 20.5428C4.42962 20.9261 4.12995 21.238 3.76165 21.238C3.39335 21.238 3.09368 20.9261 3.09368 20.5428C3.09368 20.1594 3.39335 19.8475 3.76165 19.8475ZM32.2384 18.6765C31.2497 18.6765 30.4454 19.5137 30.4454 20.5428C30.4454 21.5718 31.2497 22.409 32.2384 22.409C33.227 22.409 34.0313 21.5718 34.0313 20.5428C34.0313 19.5137 33.227 18.6765 32.2384 18.6765ZM32.2384 21.238C31.8701 21.238 31.5704 20.9261 31.5704 20.5428C31.5704 20.1594 31.8701 19.8475 32.2384 19.8475C32.6066 19.8475 32.9063 20.1594 32.9063 20.5428C32.9063 20.9261 32.6066 21.238 32.2384 21.238ZM6.51452 12.7872H14.5434C14.854 12.7872 15.1059 12.5251 15.1059 12.2017V6.84064C15.1059 6.5173 14.854 6.25514 14.5434 6.25514H6.51452C6.20388 6.25514 5.95202 6.5173 5.95202 6.84064V12.2017C5.95202 12.5251 6.20388 12.7872 6.51452 12.7872ZM7.07702 7.42613H13.9809V11.6162H7.07702V7.42613Z" fill="white"/>
</svg>
