<svg width="33" height="36" viewBox="0 0 33 36" fill="none" xmlns="http://www.w3.org/2000/svg">
<path d="M16.1999 25.8002C22.1645 25.8002 26.9999 20.9647 26.9999 15.0002C26.9999 9.03564 22.1645 4.2002 16.1999 4.2002C10.2354 4.2002 5.3999 9.03564 5.3999 15.0002C5.40693 20.9621 10.238 25.7932 16.1999 25.8002ZM16.1999 5.4002C21.5018 5.4002 25.7999 9.69834 25.7999 15.0002C25.7999 20.3021 21.5018 24.6002 16.1999 24.6002C10.898 24.6002 6.5999 20.3021 6.5999 15.0002C6.60605 9.70098 10.9007 5.40635 16.1999 5.4002Z" fill="white"/>
<path d="M14.3999 15.0002C14.3999 15.9942 15.2059 16.8002 16.1999 16.8002C17.1939 16.8002 17.9999 15.9942 17.9999 15.0002C17.9999 14.0062 17.1939 13.2002 16.1999 13.2002C15.2059 13.2002 14.3999 14.0062 14.3999 15.0002ZM16.7999 15.0002C16.7999 15.3315 16.5313 15.6002 16.1999 15.6002C15.8686 15.6002 15.5999 15.3315 15.5999 15.0002C15.5999 14.6688 15.8686 14.4002 16.1999 14.4002C16.5313 14.4002 16.7999 14.6688 16.7999 15.0002Z" fill="white"/>
<path d="M9.00005 14.9996C9.00444 11.0249 12.2253 7.804 16.2 7.79961V6.59961C11.5629 6.60459 7.80503 10.3625 7.80005 14.9996H9.00005Z" fill="white"/>
<path d="M16.2 23.4C20.8371 23.395 24.595 19.6371 24.6 15H23.4C23.3956 18.9747 20.1747 22.1956 16.2 22.2V23.4Z" fill="white"/>
<path d="M29.4 0H3C1.34385 0.00205079 0.00205079 1.34385 0 3V33C0.00205079 34.6562 1.34385 35.998 3 36H29.4C31.0562 35.998 32.3979 34.6562 32.4 33V3C32.3979 1.34385 31.0562 0.00205079 29.4 0ZM31.2 33C31.2 33.994 30.394 34.8 29.4 34.8H3C2.00596 34.8 1.2 33.994 1.2 33V3C1.2 2.00596 2.00596 1.2 3 1.2H29.4C30.394 1.2 31.2 2.00596 31.2 3V33Z" fill="white"/>
<path d="M28.2002 29.3994V26.9994C28.2002 26.6681 27.9315 26.3994 27.6002 26.3994H4.8002C4.46885 26.3994 4.2002 26.6681 4.2002 26.9994V29.3994C4.2002 29.7308 4.46885 29.9994 4.8002 29.9994H27.6002C27.9315 29.9994 28.2002 29.7308 28.2002 29.3994ZM5.4002 27.5994H6.6002V28.7994H5.4002V27.5994ZM7.8002 27.5994H9.0002V28.7994H7.8002V27.5994ZM10.2002 27.5994H11.4002V28.7994H10.2002V27.5994ZM12.6002 28.7994V27.5994H13.8002V28.7994H12.6002ZM27.0002 28.7994H15.0002V27.5994H27.0002V28.7994Z" fill="white"/>
<path d="M3.60005 5.3998C4.59409 5.3998 5.40005 4.59385 5.40005 3.5998C5.40005 2.60576 4.59409 1.7998 3.60005 1.7998C2.60601 1.7998 1.80005 2.60576 1.80005 3.5998C1.80005 4.59385 2.60601 5.3998 3.60005 5.3998ZM3.60005 2.9998C3.9314 2.9998 4.20005 3.26846 4.20005 3.5998C4.20005 3.93115 3.9314 4.1998 3.60005 4.1998C3.2687 4.1998 3.00005 3.93115 3.00005 3.5998C3.00005 3.26846 3.2687 2.9998 3.60005 2.9998Z" fill="white"/>
<path d="M28.8 1.7998C27.806 1.7998 27 2.60576 27 3.5998C27 4.59385 27.806 5.3998 28.8 5.3998C29.794 5.3998 30.6 4.59385 30.6 3.5998C30.6 2.60576 29.794 1.7998 28.8 1.7998ZM28.8 4.1998C28.4687 4.1998 28.2 3.93115 28.2 3.5998C28.2 3.26846 28.4687 2.9998 28.8 2.9998C29.1313 2.9998 29.4 3.26846 29.4 3.5998C29.4 3.93115 29.1313 4.1998 28.8 4.1998Z" fill="white"/>
<path d="M3.60005 30.5996C2.60601 30.5996 1.80005 31.4056 1.80005 32.3996C1.80005 33.3937 2.60601 34.1996 3.60005 34.1996C4.59409 34.1996 5.40005 33.3937 5.40005 32.3996C5.40005 31.4056 4.59409 30.5996 3.60005 30.5996ZM3.60005 32.9996C3.2687 32.9996 3.00005 32.731 3.00005 32.3996C3.00005 32.0683 3.2687 31.7996 3.60005 31.7996C3.9314 31.7996 4.20005 32.0683 4.20005 32.3996C4.20005 32.731 3.9314 32.9996 3.60005 32.9996Z" fill="white"/>
<path d="M28.8 30.5996C27.806 30.5996 27 31.4056 27 32.3996C27 33.3937 27.806 34.1996 28.8 34.1996C29.794 34.1996 30.6 33.3937 30.6 32.3996C30.6 31.4056 29.794 30.5996 28.8 30.5996ZM28.8 32.9996C28.4687 32.9996 28.2 32.731 28.2 32.3996C28.2 32.0683 28.4687 31.7996 28.8 31.7996C29.1313 31.7996 29.4 32.0683 29.4 32.3996C29.4 32.731 29.1313 32.9996 28.8 32.9996Z" fill="white"/>
</svg>
