<svg xmlns="http://www.w3.org/2000/svg" version="1.1" viewBox="0 0 327 90" width="200" height="55.04587155963303"><g stroke-width="2" fill="none" stroke-linecap="butt"><path stroke="#7b7b7b" d="M139.82 11.47A.27.27 0 0 0 139.55 11.2L126.39 11.2A.27.27 0 0 0 126.12 11.47L126.12 66.53A.27.27 0 0 0 126.39 66.8L139.55 66.8A.27.27 0 0 0 139.82 66.53L139.82 11.47M50.69 67.05C61.88 65.1 70.35 58.74 72.63 47.21 74.21 39.23 73.21 29.6 68.27 22.95 61.01 13.19 47.2 11.52 35.51 12.8 22.78 14.21 12.76 20.6 10.52 33.73 8.45 45.81 11.7 58.35 23.22 64.15 31.2 68.16 41.87 68.59 50.69 67.05" data-c-stroke="7b7b7b" stroke-opacity="0"/><path stroke="#1c716f" d="M273.85 53.49C267.92 49.28 267.49 39.69 269.34 33.48 271.92 24.8 280.64 23.05 288.68 24.17Q297.57 25.42 300.37 33.26 300.58 33.85 301.21 33.85L315.53 33.87Q316.02 33.87 315.93 33.38C312.61 14.62 293.47 10.85 277.59 12.94 264.81 14.62 255.49 21.47 253.57 35.06 251.93 46.62 255.38 58.37 266.21 63.98Q271.26 66.6 277.73 67.41C293.62 69.4 312.57 65.71 315.94 47Q316.03 46.48 315.5 46.48L301.06 46.49Q300.57 46.49 300.41 46.95 297.81 54.42 289.84 55.94C284.54 56.96 278.38 56.71 273.85 53.49M211.32 51.61Q218.08 51.64 225.73 51.63C235.02 51.61 246.58 49.84 250.58 40.07Q252.61 35.13 251.61 28.75C249.76 16.84 238.09 13.62 227.87 13.55Q212.09 13.44 195.86 13.52A.5.49-.6 0 0 195.37 14.01L195.37 66.06Q195.37 66.75 196.06 66.75L209.93 66.75Q210.62 66.75 210.62 66.07L210.63 52.3Q210.63 51.61 211.32 51.61" data-c-stroke="1c716f" stroke-opacity="0"/><path stroke="#7b7b7b" d="M90.29 37.51 89.15 29.23Q89.1 28.87 88.73 28.87L77.31 28.87A.44.44 0 0 0 76.87 29.31L76.87 66.19Q76.87 66.76 77.44 66.76L90.03 66.74Q90.57 66.74 90.58 66.2 90.73 58.36 90.57 49.92C90.43 43.11 93.86 35.26 102.33 37.82 106.11 38.96 107.85 43.09 107.86 46.81Q107.9 57.34 107.86 66.15 107.86 66.75 108.46 66.75L120.81 66.75Q121.59 66.75 121.6 65.97 121.71 56.05 121.54 45.93 121.45 40.94 120.15 37.02C117.74 29.74 111.1 27.51 103.93 28.17 97.73 28.74 93.62 32.12 91 37.62Q90.47 38.74 90.29 37.51M167.71 53.75A.39.39 0 0 1 167.01 53.75L155.83 29.46A1.21 1.21 0 0 0 154.73 28.75L141.81 28.75A.24.24 0 0 0 141.59 29.09L159.21 67.59Q159.45 68.1 159.05 68.49 156.41 71.06 152.59 70.05C151.78 69.83 151.06 69.25 150.24 68.95Q149.77 68.78 149.56 69.23L145.59 77.87Q144.95 79.26 146.31 79.96C159.91 86.92 169.59 79.85 175.25 67.82Q184.16 48.85 193.06 29.25 193.29 28.74 192.73 28.74L179.76 28.76A.83.82 12.3 0 0 179.01 29.24L167.71 53.75M57.9504 37.6403A13.96 13.96 0 0 0 43.8209 23.8519L39.0213 23.9105A13.96 13.96 0 0 0 25.2329 38.04L25.2896 42.6797A13.96 13.96 0 0 0 39.4191 56.4681L44.2187 56.4095A13.96 13.96 0 0 0 58.0071 42.28L57.9504 37.6403" data-c-stroke="7b7b7b" stroke-opacity="0"/><path stroke="#1c716f" d="M 210.62 26.99 L 210.64 38.15 A 0.48 0.48 0.0 0 0 211.12 38.63 L 230.21 38.60 A 6.49 5.36 -0.1 0 0 236.69 33.23 L 236.69 31.83 A 6.49 5.36 -0.1 0 0 230.19 26.48 L 211.10 26.51 A 0.48 0.48 0.0 0 0 210.62 26.99" data-c-stroke="1c716f" stroke-opacity="0"/></g><path fill="#000000" d="M 0.00 0.00 L 327.00 0.00 L 327.00 90.00 L 0.00 90.00 L 0.00 0.00 Z M 139.82 11.47 A 0.27 0.27 0.0 0 0 139.55 11.20 L 126.39 11.20 A 0.27 0.27 0.0 0 0 126.12 11.47 L 126.12 66.53 A 0.27 0.27 0.0 0 0 126.39 66.80 L 139.55 66.80 A 0.27 0.27 0.0 0 0 139.82 66.53 L 139.82 11.47 Z M 50.69 67.05 C 61.88 65.10 70.35 58.74 72.63 47.21 C 74.21 39.23 73.21 29.60 68.27 22.95 C 61.01 13.19 47.20 11.52 35.51 12.80 C 22.78 14.21 12.76 20.60 10.52 33.73 C 8.45 45.81 11.70 58.35 23.22 64.15 C 31.20 68.16 41.87 68.59 50.69 67.05 Z M 273.85 53.49 C 267.92 49.28 267.49 39.69 269.34 33.48 C 271.92 24.80 280.64 23.05 288.68 24.17 Q 297.57 25.42 300.37 33.26 Q 300.58 33.85 301.21 33.85 L 315.53 33.87 Q 316.02 33.87 315.93 33.38 C 312.61 14.62 293.47 10.85 277.59 12.94 C 264.81 14.62 255.49 21.47 253.57 35.06 C 251.93 46.62 255.38 58.37 266.21 63.98 Q 271.26 66.60 277.73 67.41 C 293.62 69.40 312.57 65.71 315.94 47.00 Q 316.03 46.48 315.50 46.48 L 301.06 46.49 Q 300.57 46.49 300.41 46.95 Q 297.81 54.42 289.84 55.94 C 284.54 56.96 278.38 56.71 273.85 53.49 Z M 211.32 51.61 Q 218.08 51.64 225.73 51.63 C 235.02 51.61 246.58 49.84 250.58 40.07 Q 252.61 35.13 251.61 28.75 C 249.76 16.84 238.09 13.62 227.87 13.55 Q 212.09 13.44 195.86 13.52 A 0.50 0.49 -0.6 0 0 195.37 14.01 L 195.37 66.06 Q 195.37 66.75 196.06 66.75 L 209.93 66.75 Q 210.62 66.75 210.62 66.07 L 210.63 52.30 Q 210.63 51.61 211.32 51.61 Z M 90.29 37.51 L 89.15 29.23 Q 89.10 28.87 88.73 28.87 L 77.31 28.87 A 0.44 0.44 0.0 0 0 76.87 29.31 L 76.87 66.19 Q 76.87 66.76 77.44 66.76 L 90.03 66.74 Q 90.57 66.74 90.58 66.20 Q 90.73 58.36 90.57 49.92 C 90.43 43.11 93.86 35.26 102.33 37.82 C 106.11 38.96 107.85 43.09 107.86 46.81 Q 107.90 57.34 107.86 66.15 Q 107.86 66.75 108.46 66.75 L 120.81 66.75 Q 121.59 66.75 121.60 65.97 Q 121.71 56.05 121.54 45.93 Q 121.45 40.94 120.15 37.02 C 117.74 29.74 111.10 27.51 103.93 28.17 C 97.73 28.74 93.62 32.12 91.00 37.62 Q 90.47 38.74 90.29 37.51 Z M 167.71 53.75 A 0.39 0.39 0.0 0 1 167.01 53.75 L 155.83 29.46 A 1.21 1.21 0.0 0 0 154.73 28.75 L 141.81 28.75 A 0.24 0.24 0.0 0 0 141.59 29.09 L 159.21 67.59 Q 159.45 68.10 159.05 68.49 Q 156.41 71.06 152.59 70.05 C 151.78 69.83 151.06 69.25 150.24 68.95 Q 149.77 68.78 149.56 69.23 L 145.59 77.87 Q 144.95 79.26 146.31 79.96 C 159.91 86.92 169.59 79.85 175.25 67.82 Q 184.16 48.85 193.06 29.25 Q 193.29 28.74 192.73 28.74 L 179.76 28.76 A 0.83 0.82 12.3 0 0 179.01 29.24 L 167.71 53.75 Z" data-c-fill="0" fill-opacity="0"/><rect fill="#f6f6f6" x="126.12" y="11.2" width="13.7" height="55.6" rx=".27" data-c-fill="f6f6f6"/><path fill="#f6f6f6" d="M 72.63 47.21 C 70.35 58.74 61.88 65.10 50.69 67.05 C 41.87 68.59 31.20 68.16 23.22 64.15 C 11.70 58.35 8.45 45.81 10.52 33.73 C 12.76 20.60 22.78 14.21 35.51 12.80 C 47.20 11.52 61.01 13.19 68.27 22.95 C 73.21 29.60 74.21 39.23 72.63 47.21 Z M 57.9504 37.6403 A 13.96 13.96 0.0 0 0 43.8209 23.8519 L 39.0213 23.9105 A 13.96 13.96 0.0 0 0 25.2329 38.0400 L 25.2896 42.6797 A 13.96 13.96 0.0 0 0 39.4191 56.4681 L 44.2187 56.4095 A 13.96 13.96 0.0 0 0 58.0071 42.2800 L 57.9504 37.6403 Z" data-c-fill="f6f6f6"/><path fill="#38e2de" d="M273.85 53.49C278.38 56.71 284.54 56.96 289.84 55.94Q297.81 54.42 300.41 46.95 300.57 46.49 301.06 46.49L315.5 46.48Q316.03 46.48 315.94 47C312.57 65.71 293.62 69.4 277.73 67.41Q271.26 66.6 266.21 63.98C255.38 58.37 251.93 46.62 253.57 35.06 255.49 21.47 264.81 14.62 277.59 12.94 293.47 10.85 312.61 14.62 315.93 33.38Q316.02 33.87 315.53 33.87L301.21 33.85Q300.58 33.85 300.37 33.26 297.57 25.42 288.68 24.17C280.64 23.05 271.92 24.8 269.34 33.48 267.49 39.69 267.92 49.28 273.85 53.49ZM210.63 52.3 210.62 66.07Q210.62 66.75 209.93 66.75L196.06 66.75Q195.37 66.75 195.37 66.06L195.37 14.01A.5.49-.6 0 1 195.86 13.52Q212.09 13.44 227.87 13.55C238.09 13.62 249.76 16.84 251.61 28.75Q252.61 35.13 250.58 40.07C246.58 49.84 235.02 51.61 225.73 51.63Q218.08 51.64 211.32 51.61 210.63 51.61 210.63 52.3ZM210.62 26.99 210.64 38.15A.48.48 0 0 0 211.12 38.63L230.21 38.6A6.49 5.36-.1 0 0 236.69 33.23L236.69 31.83A6.49 5.36-.1 0 0 230.19 26.48L211.1 26.51A.48.48 0 0 0 210.62 26.99Z" data-c-fill="38e2de"/><rect fill="#000000" x="-16.36" y="-16.28" transform="rotate(-.7 3307.91 -3386.521)" width="32.72" height="32.56" rx="13.96" data-c-fill="0" fill-opacity="0"/><path fill="#000000" d="M 210.62 26.99 A 0.48 0.48 0.0 0 1 211.10 26.51 L 230.19 26.48 A 6.49 5.36 -0.1 0 1 236.69 31.83 L 236.69 33.23 A 6.49 5.36 -0.1 0 1 230.21 38.60 L 211.12 38.63 A 0.48 0.48 0.0 0 1 210.64 38.15 L 210.62 26.99 Z" data-c-fill="0" fill-opacity="0"/><path fill="#f6f6f6" d="M90.29 37.51Q90.47 38.74 91 37.62C93.62 32.12 97.73 28.74 103.93 28.17 111.1 27.51 117.74 29.74 120.15 37.02Q121.45 40.94 121.54 45.93 121.71 56.05 121.6 65.97 121.59 66.75 120.81 66.75L108.46 66.75Q107.86 66.75 107.86 66.15 107.9 57.34 107.86 46.81C107.85 43.09 106.11 38.96 102.33 37.82 93.86 35.26 90.43 43.11 90.57 49.92Q90.73 58.36 90.58 66.2 90.57 66.74 90.03 66.74L77.44 66.76Q76.87 66.76 76.87 66.19L76.87 29.31A.44.44 0 0 1 77.31 28.87L88.73 28.87Q89.1 28.87 89.15 29.23L90.29 37.51ZM167.71 53.75 179.01 29.24A.83.82 12.3 0 1 179.76 28.76L192.73 28.74Q193.29 28.74 193.06 29.25 184.16 48.85 175.25 67.82C169.59 79.85 159.91 86.92 146.31 79.96Q144.95 79.26 145.59 77.87L149.56 69.23Q149.77 68.78 150.24 68.95C151.06 69.25 151.78 69.83 152.59 70.05Q156.41 71.06 159.05 68.49 159.45 68.1 159.21 67.59L141.59 29.09A.24.24 0 0 1 141.81 28.75L154.73 28.75A1.21 1.21 0 0 1 155.83 29.46L167.01 53.75A.39.39 0 0 0 167.71 53.75Z" data-c-fill="f6f6f6"/></svg>